<mxfile host="Electron" modified="2023-10-20T10:00:32.484Z" agent="Mozilla/5.0 (Windows NT 10.0; Win64; x64) AppleWebKit/537.36 (KHTML, like Gecko) draw.io/21.6.1 Chrome/112.0.5615.204 Electron/24.6.1 Safari/537.36" etag="zAkL0rANNcY-sHc7rzsR" version="21.6.1" type="device">
  <diagram id="S8_EbyP6fOLFSmQk0vZv" name="Seite-1">
    <mxGraphModel dx="1130" dy="723" grid="1" gridSize="10" guides="1" tooltips="1" connect="1" arrows="1" fold="1" page="1" pageScale="1" pageWidth="827" pageHeight="1169" background="#FFFFFF" math="0" shadow="0">
      <root>
        <mxCell id="0" />
        <mxCell id="2" value="Layer 0" parent="0" />
        <mxCell id="3" style="shape=filledEdge;strokeWidth=2;strokeColor=#000000;fillColor=none;startArrow=none;startFill=0;startSize=6;endArrow=none;endFill=0;endSize=6;rounded=1;gliffyId=17;edgeStyle=orthogonalEdgeStyle;" parent="2" source="30" target="51" edge="1">
          <mxGeometry width="1" height="23" relative="1" as="geometry">
            <Array as="points">
              <mxPoint x="240" y="328.75" />
              <mxPoint x="240" y="337.0833435058594" />
              <mxPoint x="240" y="345.4166564941406" />
              <mxPoint x="240" y="353.75" />
            </Array>
          </mxGeometry>
        </mxCell>
        <mxCell id="4" style="shape=filledEdge;strokeWidth=2;strokeColor=#FF33FF;fillColor=none;startArrow=none;startFill=0;startSize=6;endArrow=none;endFill=0;endSize=6;rounded=1;gliffyId=298;edgeStyle=orthogonalEdgeStyle;" parent="2" source="43" target="52" edge="1">
          <mxGeometry width="1" height="23" relative="1" as="geometry">
            <Array as="points" />
            <mxPoint x="922" y="331.25" as="sourcePoint" />
          </mxGeometry>
        </mxCell>
        <mxCell id="5" style="shape=filledEdge;strokeWidth=2;strokeColor=#FF33FF;fillColor=none;startArrow=none;startFill=0;startSize=6;endArrow=none;endFill=0;endSize=6;rounded=1;gliffyId=55;entryX=0.5;entryY=0.5;entryPerimeter=0;edgeStyle=orthogonalEdgeStyle;" parent="2" source="44" target="98" edge="1">
          <mxGeometry width="1" height="23" relative="1" as="geometry">
            <Array as="points">
              <mxPoint x="885" y="790" />
              <mxPoint x="885" y="815.5" />
              <mxPoint x="885" y="841" />
            </Array>
          </mxGeometry>
        </mxCell>
        <mxCell id="6" style="shape=filledEdge;strokeWidth=2;strokeColor=#7F00FF;fillColor=#FFFFFF;startArrow=none;startFill=0;startSize=6;endArrow=none;endFill=0;endSize=6;rounded=1;gliffyId=330;entryX=0.5;entryY=0.5;entryPerimeter=0;edgeStyle=orthogonalEdgeStyle;fontSize=12;shadow=0;opacity=100;spacingLeft=0.6;spacingRight=0;" parent="2" source="45" target="99" edge="1">
          <mxGeometry width="1" height="23" relative="1" as="geometry">
            <Array as="points">
              <mxPoint x="885" y="1060" />
              <mxPoint x="885" y="1085.5" />
              <mxPoint x="885" y="1111" />
            </Array>
          </mxGeometry>
        </mxCell>
        <mxCell id="7" style="shape=filledEdge;strokeWidth=2;strokeColor=#cc0000;fillColor=none;startArrow=none;startFill=0;startSize=6;endArrow=none;endFill=0;endSize=6;rounded=0;gliffyId=121;exitX=0.5;exitY=1.0;exitPerimeter=0;entryX=0.5;entryY=0.5;entryPerimeter=0;" parent="2" source="46" target="100" edge="1">
          <mxGeometry width="1" height="23" relative="1" as="geometry">
            <Array as="points">
              <mxPoint x="279.5" y="1060" />
              <mxPoint x="312" y="1111" />
            </Array>
          </mxGeometry>
        </mxCell>
        <mxCell id="8" style="shape=filledEdge;strokeWidth=2;strokeColor=#7F00FF;fillColor=none;startArrow=none;startFill=0;startSize=6;endArrow=none;endFill=0;endSize=6;rounded=0;gliffyId=126;exitX=0.5;exitY=1.0;exitPerimeter=0;entryX=0.5;entryY=0.5;entryPerimeter=0;" parent="2" source="47" target="100" edge="1">
          <mxGeometry width="1" height="23" relative="1" as="geometry">
            <Array as="points">
              <mxPoint x="387" y="1060" />
              <mxPoint x="312" y="1111" />
            </Array>
          </mxGeometry>
        </mxCell>
        <mxCell id="11" style="shape=filledEdge;strokeWidth=2;strokeColor=#cc0000;fillColor=none;startArrow=none;startFill=0;startSize=6;endArrow=none;endFill=0;endSize=6;rounded=1;gliffyId=156;entryX=0.5;entryY=0.5;entryPerimeter=0;edgeStyle=orthogonalEdgeStyle;" parent="2" source="48" target="101" edge="1">
          <mxGeometry width="1" height="23" relative="1" as="geometry">
            <Array as="points">
              <mxPoint x="310" y="790" />
              <mxPoint x="310" y="815.5" />
              <mxPoint x="310" y="841" />
            </Array>
          </mxGeometry>
        </mxCell>
        <mxCell id="12" style="shape=filledEdge;strokeWidth=2;strokeColor=#000000;fillColor=none;startArrow=none;startFill=0;startSize=6;endArrow=none;endFill=0;endSize=6;rounded=1;gliffyId=182;entryX=0.5;entryY=0.5;entryPerimeter=0;edgeStyle=orthogonalEdgeStyle;" parent="2" source="49" target="102" edge="1">
          <mxGeometry width="1" height="23" relative="1" as="geometry">
            <Array as="points">
              <mxPoint x="327" y="1409" />
              <mxPoint x="327" y="1389.5" />
              <mxPoint x="322" y="1389.5" />
              <mxPoint x="322" y="1370" />
            </Array>
          </mxGeometry>
        </mxCell>
        <mxCell id="13" style="shape=filledEdge;strokeWidth=2;strokeColor=#330000;fillColor=none;startArrow=none;startFill=0;startSize=6;endArrow=none;endFill=0;endSize=6;rounded=1;gliffyId=253;entryX=0.5;entryY=0.5;entryPerimeter=0;edgeStyle=orthogonalEdgeStyle;" parent="2" source="50" target="103" edge="1">
          <mxGeometry width="1" height="23" relative="1" as="geometry">
            <Array as="points">
              <mxPoint x="916.97" y="1402" />
              <mxPoint x="916.97" y="1382.5" />
              <mxPoint x="911.97" y="1382.5" />
              <mxPoint x="911.97" y="1363" />
            </Array>
          </mxGeometry>
        </mxCell>
        <mxCell id="14" style="shape=filledEdge;strokeWidth=2;strokeColor=#FF33FF;fillColor=none;startArrow=none;startFill=0;startSize=6;endArrow=none;endFill=0;endSize=6;rounded=1;gliffyId=60;edgeStyle=orthogonalEdgeStyle;" parent="2" source="98" target="53" edge="1">
          <mxGeometry width="1" height="23" relative="1" as="geometry">
            <Array as="points">
              <mxPoint x="840.0249633789062" y="840" />
              <mxPoint x="833.3499755859375" y="840" />
              <mxPoint x="826.6749877929688" y="840" />
              <mxPoint x="820" y="840" />
            </Array>
          </mxGeometry>
        </mxCell>
        <mxCell id="15" style="shape=filledEdge;strokeWidth=2;strokeColor=#7F00FF;fillColor=#FFFFFF;startArrow=none;startFill=0;startSize=6;endArrow=none;endFill=0;endSize=6;rounded=1;gliffyId=329;edgeStyle=orthogonalEdgeStyle;fontSize=12;shadow=0;opacity=100;spacingLeft=0.6;spacingRight=0;" parent="2" source="99" target="54" edge="1">
          <mxGeometry width="1" height="23" relative="1" as="geometry">
            <Array as="points">
              <mxPoint x="840.0249633789062" y="1110" />
              <mxPoint x="833.3499755859375" y="1110" />
              <mxPoint x="826.6749877929688" y="1110" />
              <mxPoint x="820" y="1110" />
            </Array>
          </mxGeometry>
        </mxCell>
        <mxCell id="16" style="shape=filledEdge;strokeWidth=2;strokeColor=#000000;fillColor=none;startArrow=none;startFill=0;startSize=6;endArrow=none;endFill=0;endSize=6;rounded=1;gliffyId=110;edgeStyle=orthogonalEdgeStyle;" parent="2" target="55" edge="1">
          <mxGeometry width="1" height="23" relative="1" as="geometry">
            <mxPoint x="267" y="1110" as="sourcePoint" />
            <Array as="points">
              <mxPoint x="260.3333435058594" y="1110" />
              <mxPoint x="253.66665649414062" y="1110" />
              <mxPoint x="247" y="1110" />
            </Array>
          </mxGeometry>
        </mxCell>
        <mxCell id="17" style="shape=filledEdge;strokeWidth=2;strokeColor=#000000;fillColor=none;startArrow=none;startFill=0;startSize=6;endArrow=none;endFill=0;endSize=6;rounded=1;gliffyId=155;edgeStyle=orthogonalEdgeStyle;" parent="2" source="101" target="56" edge="1">
          <mxGeometry width="1" height="23" relative="1" as="geometry">
            <Array as="points">
              <mxPoint x="265.0249938964844" y="840" />
              <mxPoint x="258.3499755859375" y="840" />
              <mxPoint x="251.67498779296875" y="840" />
              <mxPoint x="245" y="840" />
            </Array>
          </mxGeometry>
        </mxCell>
        <mxCell id="18" style="shape=filledEdge;strokeWidth=2;strokeColor=#000000;fillColor=none;startArrow=none;startFill=0;startSize=6;endArrow=none;endFill=0;endSize=6;rounded=1;gliffyId=181;edgeStyle=orthogonalEdgeStyle;" parent="2" source="102" target="57" edge="1">
          <mxGeometry width="1" height="23" relative="1" as="geometry">
            <Array as="points">
              <mxPoint x="277.0249938964844" y="1369" />
              <mxPoint x="270.3499755859375" y="1369" />
              <mxPoint x="263.67498779296875" y="1369" />
              <mxPoint x="257" y="1369" />
            </Array>
          </mxGeometry>
        </mxCell>
        <mxCell id="19" style="shape=filledEdge;strokeWidth=2;strokeColor=#000000;fillColor=none;startArrow=none;startFill=0;startSize=6;endArrow=none;endFill=0;endSize=6;rounded=1;gliffyId=252;edgeStyle=orthogonalEdgeStyle;" parent="2" source="103" target="58" edge="1">
          <mxGeometry width="1" height="23" relative="1" as="geometry">
            <Array as="points">
              <mxPoint x="866.9949633789063" y="1362" />
              <mxPoint x="860.3199755859375" y="1362" />
              <mxPoint x="853.6449877929688" y="1362" />
              <mxPoint x="846.97" y="1362" />
            </Array>
          </mxGeometry>
        </mxCell>
        <mxCell id="20" style="shape=filledEdge;strokeWidth=2;strokeColor=#FF33FF;fillColor=none;startArrow=none;startFill=0;startSize=6;endArrow=none;endFill=0;endSize=6;rounded=1;gliffyId=208;edgeStyle=orthogonalEdgeStyle;" parent="2" source="104" target="59" edge="1">
          <mxGeometry width="1" height="23" relative="1" as="geometry">
            <mxPoint x="837.10595703125" y="578" as="sourcePoint" />
            <Array as="points" />
          </mxGeometry>
        </mxCell>
        <mxCell id="21" style="shape=filledEdge;strokeWidth=2;strokeColor=#000000;fillColor=none;startArrow=none;startFill=0;startSize=6;endArrow=none;endFill=0;endSize=6;rounded=1;gliffyId=228;edgeStyle=orthogonalEdgeStyle;" parent="2" source="105" target="60" edge="1">
          <mxGeometry width="1" height="23" relative="1" as="geometry">
            <Array as="points" />
          </mxGeometry>
        </mxCell>
        <mxCell id="22" style="shape=filledEdge;strokeWidth=2;strokeColor=#000000;fillColor=none;startArrow=none;startFill=0;startSize=6;endArrow=none;endFill=0;endSize=6;rounded=1;gliffyId=63;edgeStyle=orthogonalEdgeStyle;" parent="2" source="61" target="98" edge="1">
          <mxGeometry width="1" height="23" relative="1" as="geometry">
            <Array as="points">
              <mxPoint x="960" y="841" />
              <mxPoint x="950" y="841" />
              <mxPoint x="940" y="841" />
              <mxPoint x="930" y="841" />
            </Array>
          </mxGeometry>
        </mxCell>
        <mxCell id="23" style="shape=filledEdge;strokeWidth=2;strokeColor=#7F00FF;fillColor=#FFFFFF;startArrow=none;startFill=0;startSize=6;endArrow=none;endFill=0;endSize=6;rounded=1;gliffyId=328;edgeStyle=orthogonalEdgeStyle;fontSize=12;shadow=0;opacity=100;spacingLeft=0.6;spacingRight=0;" parent="2" source="62" target="99" edge="1">
          <mxGeometry width="1" height="23" relative="1" as="geometry">
            <Array as="points">
              <mxPoint x="960" y="1111" />
              <mxPoint x="950" y="1111" />
              <mxPoint x="940" y="1111" />
              <mxPoint x="930" y="1111" />
            </Array>
          </mxGeometry>
        </mxCell>
        <mxCell id="24" style="shape=filledEdge;strokeWidth=2;strokeColor=#000000;fillColor=none;startArrow=none;startFill=0;startSize=6;endArrow=none;endFill=0;endSize=6;rounded=1;gliffyId=109;edgeStyle=orthogonalEdgeStyle;" parent="2" source="63" target="100" edge="1">
          <mxGeometry width="1" height="23" relative="1" as="geometry">
            <Array as="points">
              <mxPoint x="387" y="1111" />
              <mxPoint x="377" y="1111" />
              <mxPoint x="367" y="1111" />
              <mxPoint x="357" y="1111" />
            </Array>
          </mxGeometry>
        </mxCell>
        <mxCell id="25" style="shape=filledEdge;strokeWidth=2;strokeColor=#000000;fillColor=none;startArrow=none;startFill=0;startSize=6;endArrow=none;endFill=0;endSize=6;rounded=1;gliffyId=154;edgeStyle=orthogonalEdgeStyle;" parent="2" source="64" target="101" edge="1">
          <mxGeometry width="1" height="23" relative="1" as="geometry">
            <Array as="points">
              <mxPoint x="385" y="841" />
              <mxPoint x="375" y="841" />
              <mxPoint x="365" y="841" />
              <mxPoint x="355" y="841" />
            </Array>
          </mxGeometry>
        </mxCell>
        <mxCell id="26" style="shape=filledEdge;strokeWidth=2;strokeColor=#000000;fillColor=#FFFFFF;startArrow=none;startFill=0;startSize=6;endArrow=none;endFill=0;endSize=6;rounded=1;gliffyId=180;edgeStyle=orthogonalEdgeStyle;fontSize=12;shadow=0;opacity=100;spacingLeft=0.6;spacingRight=0;" parent="2" source="AQTmQn9YJskU7MhowZhO-136" target="102" edge="1">
          <mxGeometry width="1" height="23" relative="1" as="geometry">
            <Array as="points">
              <mxPoint x="207" y="1320" />
              <mxPoint x="407" y="1320" />
              <mxPoint x="407" y="1370" />
            </Array>
          </mxGeometry>
        </mxCell>
        <mxCell id="27" style="shape=filledEdge;strokeWidth=2;strokeColor=#000000;fillColor=#FFFFFF;startArrow=none;startFill=0;startSize=6;endArrow=none;endFill=0;endSize=6;rounded=1;gliffyId=251;edgeStyle=orthogonalEdgeStyle;fontSize=12;shadow=0;opacity=100;spacingLeft=0.6;spacingRight=0;" parent="2" source="AQTmQn9YJskU7MhowZhO-130" target="103" edge="1">
          <mxGeometry width="1" height="23" relative="1" as="geometry">
            <Array as="points">
              <mxPoint x="796.97" y="1316.97" />
              <mxPoint x="996.97" y="1316.97" />
              <mxPoint x="996.97" y="1362.97" />
            </Array>
          </mxGeometry>
        </mxCell>
        <mxCell id="28" style="shape=filledEdge;strokeWidth=2;strokeColor=#000000;fillColor=none;startArrow=none;startFill=0;startSize=6;endArrow=none;endFill=0;endSize=6;rounded=1;gliffyId=207;edgeStyle=orthogonalEdgeStyle;" parent="2" source="65" target="104" edge="1">
          <mxGeometry width="1" height="23" relative="1" as="geometry">
            <Array as="points">
              <mxPoint x="957" y="581.5" />
              <mxPoint x="947" y="581.5" />
              <mxPoint x="937" y="581.5" />
              <mxPoint x="927" y="581.5" />
            </Array>
          </mxGeometry>
        </mxCell>
        <mxCell id="29" style="shape=filledEdge;strokeWidth=2;strokeColor=#000000;fillColor=none;startArrow=none;startFill=0;startSize=6;endArrow=none;endFill=0;endSize=6;rounded=1;gliffyId=227;edgeStyle=orthogonalEdgeStyle;" parent="2" source="66" target="105" edge="1">
          <mxGeometry width="1" height="23" relative="1" as="geometry">
            <Array as="points" />
          </mxGeometry>
        </mxCell>
        <mxCell id="30" value="&lt;div style=&#39;width: 93.0px;height:auto;word-break: break-word;&#39;&gt;&lt;div align=&quot;center&quot;&gt;&lt;span style=&quot;font-family: Arial; font-size: 12px; text-decoration: none; line-height: 0;&quot;&gt;&lt;span style=&quot;text-decoration: none; line-height: 14px;&quot; class=&quot;&quot;&gt;A_SAT&lt;/span&gt;&lt;/span&gt;&lt;/div&gt;&lt;/div&gt;" style="shape=rect;rounded=1;arcSize=15;absoluteArcSize=1;shadow=0;strokeWidth=2;fillColor=#FFFFFF;strokeColor=#333333;opacity=100.0;html=1;nl2Br=0;verticalAlign=middle;align=center;spacingLeft=2.0;spacingRight=0;whiteSpace=wrap;gliffyId=15;" parent="2" vertex="1">
          <mxGeometry x="190" y="288.75" width="100" height="40" as="geometry" />
        </mxCell>
        <mxCell id="31" value="&lt;div style=&#39;width: 43.0px;height:auto;word-break: break-word;&#39;&gt;&lt;div align=&quot;center&quot;&gt;&lt;span style=&quot;font-family: Helvetica; font-size: 36px; text-decoration: none; line-height: 36px; font-weight: bold;&quot;&gt;1&lt;/span&gt;&lt;/div&gt;&lt;/div&gt;" style="shape=rect;shadow=0;strokeWidth=0;strokeColor=none;fillColor=#cccccc;opacity=100.0;html=1;nl2Br=0;verticalAlign=top;align=center;spacingLeft=2.0;spacingRight=0;spacingTop=1.0;spacingBottom=8;whiteSpace=wrap;gliffyId=345;" parent="2" vertex="1">
          <mxGeometry x="20" y="220" width="50" height="250" as="geometry" />
        </mxCell>
        <mxCell id="32" value="&lt;div style=&#39;width: 43.0px;height:auto;word-break: break-word;&#39;&gt;&lt;div align=&quot;center&quot;&gt;&lt;span style=&quot;font-family: Helvetica; font-size: 36px; text-decoration: none; font-weight: bold; line-height: 36px;&quot;&gt;2&lt;/span&gt;&lt;/div&gt;&lt;/div&gt;" style="shape=rect;shadow=0;strokeWidth=0;strokeColor=none;fillColor=#cccccc;opacity=100.0;html=1;nl2Br=0;verticalAlign=top;align=center;spacingLeft=2.0;spacingRight=0;spacingTop=1.0;spacingBottom=8;whiteSpace=wrap;gliffyId=348;" parent="2" vertex="1">
          <mxGeometry x="725" y="220" width="50" height="250" as="geometry" />
        </mxCell>
        <mxCell id="33" value="&lt;div style=&#39;width: 43.0px;height:auto;word-break: break-word;&#39;&gt;&lt;div align=&quot;center&quot;&gt;&lt;span style=&quot;font-family: Helvetica; font-size: 36px; text-decoration: none; font-weight: bold; line-height: 36px;&quot;&gt;4&lt;/span&gt;&lt;/div&gt;&lt;/div&gt;" style="shape=rect;shadow=0;strokeWidth=0;strokeColor=none;fillColor=#cccccc;opacity=100.0;html=1;nl2Br=0;verticalAlign=top;align=center;spacingLeft=2.0;spacingRight=0;spacingTop=1.0;spacingBottom=8;whiteSpace=wrap;gliffyId=355;" parent="2" vertex="1">
          <mxGeometry x="585" y="500" width="50" height="170" as="geometry" />
        </mxCell>
        <mxCell id="34" value="&lt;div style=&#39;width: 43.0px;height:auto;word-break: break-word;&#39;&gt;&lt;div align=&quot;center&quot;&gt;&lt;span style=&quot;font-family: Helvetica; font-size: 36px; text-decoration: none; font-weight: bold; line-height: 36px;&quot;&gt;3&lt;/span&gt;&lt;/div&gt;&lt;/div&gt;" style="shape=rect;shadow=0;strokeWidth=0;strokeColor=none;fillColor=#cccccc;opacity=100.0;html=1;nl2Br=0;verticalAlign=top;align=center;spacingLeft=2.0;spacingRight=0;spacingTop=1.0;spacingBottom=8;whiteSpace=wrap;gliffyId=357;" parent="2" vertex="1">
          <mxGeometry x="20" y="500" width="50" height="170" as="geometry" />
        </mxCell>
        <mxCell id="35" value="&lt;div style=&#39;width: 43.0px;height:auto;word-break: break-word;&#39;&gt;&lt;div align=&quot;center&quot;&gt;&lt;span style=&quot;font-family: Helvetica; font-size: 36px; text-decoration: none; font-weight: bold; line-height: 36px;&quot;&gt;5&lt;/span&gt;&lt;/div&gt;&lt;/div&gt;" style="shape=rect;shadow=0;strokeWidth=0;strokeColor=none;fillColor=#cccccc;opacity=100.0;html=1;nl2Br=0;verticalAlign=top;align=center;spacingLeft=2.0;spacingRight=0;spacingTop=1.0;spacingBottom=8;whiteSpace=wrap;gliffyId=362;" parent="2" vertex="1">
          <mxGeometry x="20" y="690" width="50" height="260" as="geometry" />
        </mxCell>
        <mxCell id="36" value="&lt;div style=&quot;width: 147.0px;height:auto;word-break: break-word;&quot;&gt;&lt;div align=&quot;center&quot;&gt;&lt;span style=&quot;font-family: Arial; font-size: 12px; line-height: 0;&quot;&gt;&lt;span style=&quot;line-height: 14px;&quot; class=&quot;&quot;&gt;Base rules&lt;/span&gt;&lt;/span&gt;&lt;/div&gt;&lt;/div&gt;" style="text;html=1;nl2Br=0;html=1;nl2Br=0;verticalAlign=middle;align=center;spacingLeft=0.0;spacingRight=0;whiteSpace=wrap;gliffyId=397;" parent="2" vertex="1">
          <mxGeometry x="70" y="15" width="150" height="14" as="geometry" />
        </mxCell>
        <mxCell id="37" value="&lt;div style=&#39;width: 43.0px;height:auto;word-break: break-word;&#39;&gt;&lt;div align=&quot;center&quot;&gt;&lt;span style=&quot;font-family: Helvetica; font-size: 36px; text-decoration: none; font-weight: bold; line-height: 36px;&quot;&gt;6&lt;/span&gt;&lt;/div&gt;&lt;/div&gt;" style="shape=rect;shadow=0;strokeWidth=0;strokeColor=none;fillColor=#cccccc;opacity=100.0;html=1;nl2Br=0;verticalAlign=top;align=center;spacingLeft=2.0;spacingRight=0;spacingTop=1.0;spacingBottom=8;whiteSpace=wrap;gliffyId=364;" parent="2" vertex="1">
          <mxGeometry x="585" y="690" width="50" height="260" as="geometry" />
        </mxCell>
        <mxCell id="38" value="&lt;div style=&#39;width: 43.0px;height:auto;word-break: break-word;&#39;&gt;&lt;div align=&quot;center&quot;&gt;&lt;span style=&quot;font-family: Helvetica; font-size: 36px; text-decoration: none; font-weight: bold; line-height: 36px;&quot;&gt;8&lt;/span&gt;&lt;/div&gt;&lt;/div&gt;" style="shape=rect;shadow=0;strokeWidth=0;strokeColor=none;fillColor=#cccccc;opacity=100.0;html=1;nl2Br=0;verticalAlign=top;align=center;spacingLeft=2.0;spacingRight=0;spacingTop=1.0;spacingBottom=8;whiteSpace=wrap;gliffyId=371;" parent="2" vertex="1">
          <mxGeometry x="585" y="960" width="50" height="260" as="geometry" />
        </mxCell>
        <mxCell id="39" value="&amp;nbsp; &amp;nbsp; &amp;nbsp; &amp;nbsp; &lt;br&gt;&lt;span style=&quot;white-space: pre;&quot;&gt;&#x9;&lt;/span&gt;represents a relation declaration in the field to target mapping&lt;br&gt;&lt;br&gt;&amp;nbsp; &amp;nbsp; &amp;nbsp; &amp;nbsp; &amp;nbsp;represents a &quot;trackig&quot; declaration at the table&lt;br&gt;&lt;br&gt;&amp;nbsp;RL = Relation - The color of the table relation line indicates, where process steps are induced by child / parent relations (red+purple=pink) &amp;nbsp;&lt;br&gt;&lt;br&gt;&amp;nbsp;Dots represent the process steps induced by the declaration (Black = default process)" style="shape=rect;shadow=0;strokeWidth=0;strokeColor=none;fillColor=#cccccc;opacity=100.0;nl2Br=0;verticalAlign=top;align=left;spacingLeft=2.0;spacingRight=0;spacingTop=-5.6;spacingBottom=8;gliffyId=392;html=1;whiteSpace=wrap;" parent="2" vertex="1">
          <mxGeometry x="520" y="29" width="530" height="178" as="geometry" />
        </mxCell>
        <mxCell id="40" value="&lt;div style=&#39;width: 43.0px;height:auto;word-break: break-word;&#39;&gt;&lt;div align=&quot;center&quot;&gt;&lt;span style=&quot;font-family: Helvetica; font-size: 36px; text-decoration: none; font-weight: bold; line-height: 36px;&quot;&gt;7&lt;/span&gt;&lt;/div&gt;&lt;/div&gt;" style="shape=rect;shadow=0;strokeWidth=0;strokeColor=none;fillColor=#cccccc;opacity=100.0;html=1;nl2Br=0;verticalAlign=top;align=center;spacingLeft=2.0;spacingRight=0;spacingTop=1.0;spacingBottom=8;whiteSpace=wrap;gliffyId=373;" parent="2" vertex="1">
          <mxGeometry x="20" y="960" width="50" height="260" as="geometry" />
        </mxCell>
        <mxCell id="41" value="&lt;div style=&#39;width: 43.0px;height:auto;word-break: break-word;&#39;&gt;&lt;div align=&quot;center&quot;&gt;&lt;span style=&quot;font-family: Helvetica; font-size: 36px; text-decoration: none; font-weight: bold; line-height: 36px;&quot;&gt;10&lt;/span&gt;&lt;/div&gt;&lt;/div&gt;" style="shape=rect;shadow=0;strokeWidth=0;strokeColor=none;fillColor=#cccccc;opacity=100.0;html=1;nl2Br=0;verticalAlign=top;align=center;spacingLeft=2.0;spacingRight=0;spacingTop=1.0;spacingBottom=8;whiteSpace=wrap;gliffyId=378;" parent="2" vertex="1">
          <mxGeometry x="585" y="1257" width="50" height="260" as="geometry" />
        </mxCell>
        <mxCell id="42" value="&lt;div style=&#39;width: 43.0px;height:auto;word-break: break-word;&#39;&gt;&lt;div align=&quot;center&quot;&gt;&lt;span style=&quot;font-family: Helvetica; font-size: 36px; text-decoration: none; font-weight: bold; line-height: 36px;&quot;&gt;9&lt;/span&gt;&lt;/div&gt;&lt;/div&gt;" style="shape=rect;shadow=0;strokeWidth=0;strokeColor=none;fillColor=#cccccc;opacity=100.0;html=1;nl2Br=0;verticalAlign=top;align=center;spacingLeft=2.0;spacingRight=0;spacingTop=1.0;spacingBottom=8;whiteSpace=wrap;gliffyId=380;" parent="2" vertex="1">
          <mxGeometry x="20" y="1257" width="50" height="260" as="geometry" />
        </mxCell>
        <mxCell id="43" value="&lt;div style=&#39;width: 93.0px;height:auto;word-break: break-word;&#39;&gt;&lt;div align=&quot;center&quot;&gt;&lt;span style=&quot;font-family: Arial; font-size: 12px; text-decoration: none; line-height: 0;&quot;&gt;&lt;span style=&quot;text-decoration: none; line-height: 14px;&quot; class=&quot;&quot;&gt;A_SAT&lt;/span&gt;&lt;/span&gt;&lt;/div&gt;&lt;/div&gt;" style="shape=rect;rounded=1;arcSize=15;absoluteArcSize=1;shadow=0;strokeWidth=2;fillColor=#FFFFFF;strokeColor=#333333;opacity=100.0;html=1;nl2Br=0;verticalAlign=middle;align=center;spacingLeft=2.0;spacingRight=0;whiteSpace=wrap;gliffyId=296;" parent="2" vertex="1">
          <mxGeometry x="872" y="295" width="100" height="40" as="geometry" />
        </mxCell>
        <mxCell id="44" value="&lt;div style=&#39;width: 93.0px;height:auto;word-break: break-word;&#39;&gt;&lt;div align=&quot;center&quot;&gt;&lt;span style=&quot;font-family: Arial; font-size: 12px; text-decoration: none; line-height: 0;&quot;&gt;&lt;span style=&quot;text-decoration: none; line-height: 14px;&quot;&gt;A_B_SAT&lt;/span&gt;&lt;/span&gt;&lt;/div&gt;&lt;/div&gt;" style="shape=rect;rounded=1;arcSize=15;absoluteArcSize=1;shadow=0;strokeWidth=2;fillColor=#FFFFFF;strokeColor=#333333;opacity=100.0;html=1;nl2Br=0;verticalAlign=top;align=center;spacingLeft=8.0;spacingRight=6;whiteSpace=wrap;gliffyId=54;" parent="2" vertex="1">
          <mxGeometry x="835" y="760" width="100" height="30" as="geometry" />
        </mxCell>
        <mxCell id="45" value="&lt;div style=&#39;width: 93.0px;height:auto;word-break: break-word;&#39;&gt;&lt;div align=&quot;center&quot;&gt;&lt;span style=&quot;font-family: Arial; font-size: 12px; text-decoration: none; line-height: 0;&quot;&gt;&lt;span style=&quot;text-decoration: none; line-height: 14px;&quot;&gt;A_B_SAT&lt;/span&gt;&lt;/span&gt;&lt;/div&gt;&lt;/div&gt;" style="shape=rect;rounded=1;arcSize=15;absoluteArcSize=1;shadow=0;strokeWidth=2;fillColor=#FFFFFF;strokeColor=#333333;opacity=100.0;html=1;nl2Br=0;verticalAlign=middle;align=center;spacingLeft=8.0;spacingRight=6;whiteSpace=wrap;gliffyId=326;" parent="2" vertex="1">
          <mxGeometry x="835" y="1020" width="100" height="40" as="geometry" />
        </mxCell>
        <mxCell id="46" value="&lt;div style=&#39;width: 97.8px;height:auto;word-break: break-word;&#39;&gt;&lt;div align=&quot;center&quot;&gt;&lt;span style=&quot;font-family: Arial; font-size: 12px; text-decoration: none; line-height: 0;&quot;&gt;&lt;span style=&quot;text-decoration: none; line-height: 14px;&quot;&gt;A_B_1_ESAT&lt;/span&gt;&lt;/span&gt;&lt;/div&gt;&lt;/div&gt;" style="shape=rect;rounded=1;arcSize=15;absoluteArcSize=1;shadow=0;strokeWidth=2;fillColor=#FFFFFF;strokeColor=#333333;opacity=100.0;html=1;nl2Br=0;verticalAlign=middle;align=center;spacingLeft=8.1;spacingRight=6;whiteSpace=wrap;gliffyId=107;" parent="2" vertex="1">
          <mxGeometry x="227" y="1020" width="105" height="40" as="geometry" />
        </mxCell>
        <mxCell id="47" value="&lt;div style=&#39;width: 93.0px;height:auto;word-break: break-word;&#39;&gt;&lt;div align=&quot;center&quot;&gt;&lt;span style=&quot;font-family: Arial; font-size: 12px; text-decoration: none; line-height: 0;&quot;&gt;&lt;span style=&quot;text-decoration: none; line-height: 14px;&quot;&gt;A_B_2_ESAT&lt;/span&gt;&lt;/span&gt;&lt;/div&gt;&lt;/div&gt;" style="shape=rect;rounded=1;arcSize=15;absoluteArcSize=1;shadow=0;strokeWidth=2;fillColor=#FFFFFF;strokeColor=#333333;opacity=100.0;html=1;nl2Br=0;verticalAlign=middle;align=center;spacingLeft=8.0;spacingRight=6;whiteSpace=wrap;gliffyId=124;" parent="2" vertex="1">
          <mxGeometry x="337" y="1020" width="100" height="40" as="geometry" />
        </mxCell>
        <mxCell id="48" value="&lt;div style=&#39;width: 93.0px;height:auto;word-break: break-word;&#39;&gt;&lt;div align=&quot;center&quot;&gt;&lt;span style=&quot;font-family: Arial; font-size: 12px; text-decoration: none; line-height: 0;&quot;&gt;&lt;span style=&quot;text-decoration: none; line-height: 14px;&quot;&gt;A_B_SAT&lt;/span&gt;&lt;/span&gt;&lt;/div&gt;&lt;/div&gt;" style="shape=rect;rounded=1;arcSize=15;absoluteArcSize=1;shadow=0;strokeWidth=2;fillColor=#FFFFFF;strokeColor=#333333;opacity=100.0;html=1;nl2Br=0;verticalAlign=top;align=center;spacingLeft=8.0;spacingRight=6;whiteSpace=wrap;gliffyId=152;" parent="2" vertex="1">
          <mxGeometry x="260" y="760" width="100" height="30" as="geometry" />
        </mxCell>
        <mxCell id="49" value="&lt;div style=&quot;width: 93.0px;height:auto;word-break: break-word;&quot;&gt;&lt;div align=&quot;center&quot;&gt;&lt;span style=&quot;font-family: Arial; font-size: 12px; text-decoration: none; line-height: 0;&quot;&gt;&lt;span style=&quot;text-decoration: none; line-height: 14px;&quot;&gt;A_AR_ESAT&lt;/span&gt;&lt;/span&gt;&lt;/div&gt;&lt;/div&gt;" style="shape=rect;rounded=1;arcSize=15;absoluteArcSize=1;shadow=0;strokeWidth=2;fillColor=#FFFFFF;strokeColor=#333333;opacity=100.0;html=1;nl2Br=0;verticalAlign=middle;align=center;spacingLeft=8.0;spacingRight=6;whiteSpace=wrap;gliffyId=178;" parent="2" vertex="1">
          <mxGeometry x="277" y="1409" width="100" height="40" as="geometry" />
        </mxCell>
        <mxCell id="50" value="&lt;div style=&quot;width: 93.0px;height:auto;word-break: break-word;&quot;&gt;&lt;div align=&quot;center&quot;&gt;&lt;span style=&quot;font-family: Arial; font-size: 12px; text-decoration: none; line-height: 0;&quot;&gt;&lt;span style=&quot;text-decoration: none; line-height: 14px;&quot;&gt;A_AR_ESAT&lt;/span&gt;&lt;/span&gt;&lt;/div&gt;&lt;/div&gt;" style="shape=rect;rounded=1;arcSize=15;absoluteArcSize=1;shadow=0;strokeWidth=2;fillColor=#FFFFFF;strokeColor=#333333;opacity=100.0;html=1;nl2Br=0;verticalAlign=middle;align=center;spacingLeft=8.0;spacingRight=6;whiteSpace=wrap;gliffyId=249;" parent="2" vertex="1">
          <mxGeometry x="866.97" y="1402" width="100" height="40" as="geometry" />
        </mxCell>
        <mxCell id="51" value="&lt;div style=&#39;width: 93.0px;height:auto;word-break: break-word;&#39;&gt;&lt;div align=&quot;center&quot;&gt;&lt;span style=&quot;font-family: Arial; font-size: 12px; text-decoration: none; line-height: 0;&quot;&gt;&lt;span style=&quot;text-decoration: none; line-height: 14px;&quot;&gt;A_HUB&lt;/span&gt;&lt;/span&gt;&lt;/div&gt;&lt;/div&gt;" style="shape=ellipse;perimeter=ellipsePerimeter;shadow=0;strokeWidth=2;fillColor=#FFFFFF;strokeColor=#333333;opacity=100.0;html=1;nl2Br=0;verticalAlign=middle;align=center;spacingLeft=2.0;spacingRight=0;whiteSpace=wrap;gliffyId=12;" parent="2" vertex="1">
          <mxGeometry x="190" y="353.75" width="100" height="50" as="geometry" />
        </mxCell>
        <mxCell id="52" value="&lt;div style=&#39;width: 93.0px;height:auto;word-break: break-word;&#39;&gt;&lt;div align=&quot;center&quot;&gt;&lt;span style=&quot;font-family: Arial; font-size: 12px; text-decoration: none; line-height: 0;&quot;&gt;&lt;span style=&quot;text-decoration: none; line-height: 14px;&quot;&gt;A_HUB&lt;/span&gt;&lt;/span&gt;&lt;/div&gt;&lt;/div&gt;" style="shape=ellipse;perimeter=ellipsePerimeter;shadow=0;strokeWidth=2;fillColor=#FFFFFF;strokeColor=#333333;opacity=100.0;html=1;nl2Br=0;verticalAlign=middle;align=center;spacingLeft=2.0;spacingRight=0;whiteSpace=wrap;gliffyId=294;" parent="2" vertex="1">
          <mxGeometry x="872" y="356.25" width="100" height="50" as="geometry" />
        </mxCell>
        <mxCell id="53" value="&lt;div style=&#39;width: 93.0px;height:auto;word-break: break-word;&#39;&gt;&lt;div align=&quot;center&quot;&gt;&lt;span style=&quot;font-family: Arial; font-size: 12px; text-decoration: none; line-height: 0;&quot;&gt;&lt;span style=&quot;text-decoration: none; line-height: 14px;&quot; class=&quot;&quot;&gt;A_HUB&lt;/span&gt;&lt;/span&gt;&lt;/div&gt;&lt;/div&gt;" style="shape=ellipse;perimeter=ellipsePerimeter;shadow=0;strokeWidth=2;fillColor=#FFFFFF;strokeColor=#333333;opacity=100.0;html=1;nl2Br=0;verticalAlign=middle;align=center;spacingLeft=8.0;spacingRight=6;whiteSpace=wrap;gliffyId=53;" parent="2" vertex="1">
          <mxGeometry x="720" y="815" width="100" height="50" as="geometry" />
        </mxCell>
        <mxCell id="54" value="&lt;div style=&#39;width: 93.0px;height:auto;word-break: break-word;&#39;&gt;&lt;div align=&quot;center&quot;&gt;&lt;span style=&quot;font-family: Arial; font-size: 12px; text-decoration: none; line-height: 0;&quot;&gt;&lt;span style=&quot;text-decoration: none; line-height: 14px;&quot; class=&quot;&quot;&gt;A_HUB&lt;/span&gt;&lt;/span&gt;&lt;/div&gt;&lt;/div&gt;" style="shape=ellipse;perimeter=ellipsePerimeter;shadow=0;strokeWidth=2;fillColor=#FFFFFF;strokeColor=#333333;opacity=100.0;html=1;nl2Br=0;verticalAlign=middle;align=center;spacingLeft=8.0;spacingRight=6;whiteSpace=wrap;gliffyId=324;" parent="2" vertex="1">
          <mxGeometry x="720" y="1085" width="100" height="50" as="geometry" />
        </mxCell>
        <mxCell id="55" value="&lt;div style=&#39;width: 93.0px;height:auto;word-break: break-word;&#39;&gt;&lt;div align=&quot;center&quot;&gt;&lt;span style=&quot;font-family: Arial; font-size: 12px; text-decoration: none; line-height: 0;&quot;&gt;&lt;span style=&quot;text-decoration: none; line-height: 14px;&quot; class=&quot;&quot;&gt;A_HUB&lt;/span&gt;&lt;/span&gt;&lt;/div&gt;&lt;/div&gt;" style="shape=ellipse;perimeter=ellipsePerimeter;shadow=0;strokeWidth=2;fillColor=#FFFFFF;strokeColor=#333333;opacity=100.0;html=1;nl2Br=0;verticalAlign=middle;align=center;spacingLeft=8.0;spacingRight=6;whiteSpace=wrap;gliffyId=105;" parent="2" vertex="1">
          <mxGeometry x="147" y="1085" width="100" height="50" as="geometry" />
        </mxCell>
        <mxCell id="56" value="&lt;div style=&#39;width: 93.0px;height:auto;word-break: break-word;&#39;&gt;&lt;div align=&quot;center&quot;&gt;&lt;span style=&quot;font-family: Arial; font-size: 12px; text-decoration: none; line-height: 0;&quot;&gt;&lt;span style=&quot;text-decoration: none; line-height: 14px;&quot; class=&quot;&quot;&gt;A_HUB&lt;/span&gt;&lt;/span&gt;&lt;/div&gt;&lt;/div&gt;" style="shape=ellipse;perimeter=ellipsePerimeter;shadow=0;strokeWidth=2;fillColor=#FFFFFF;strokeColor=#333333;opacity=100.0;html=1;nl2Br=0;verticalAlign=middle;align=center;spacingLeft=8.0;spacingRight=6;whiteSpace=wrap;gliffyId=150;" parent="2" vertex="1">
          <mxGeometry x="145" y="815" width="100" height="50" as="geometry" />
        </mxCell>
        <mxCell id="57" value="&lt;div style=&#39;width: 93.0px;height:auto;word-break: break-word;&#39;&gt;&lt;div align=&quot;center&quot;&gt;&lt;span style=&quot;font-family: Arial; font-size: 12px; text-decoration: none; line-height: 0;&quot;&gt;&lt;span style=&quot;text-decoration: none; line-height: 14px;&quot; class=&quot;&quot;&gt;A_HUB&lt;/span&gt;&lt;/span&gt;&lt;/div&gt;&lt;/div&gt;" style="shape=ellipse;perimeter=ellipsePerimeter;shadow=0;strokeWidth=2;fillColor=#FFFFFF;strokeColor=#333333;opacity=100.0;html=1;nl2Br=0;verticalAlign=middle;align=center;spacingLeft=8.0;spacingRight=6;whiteSpace=wrap;gliffyId=176;" parent="2" vertex="1">
          <mxGeometry x="157" y="1344" width="100" height="50" as="geometry" />
        </mxCell>
        <mxCell id="58" value="&lt;div style=&#39;width: 93.0px;height:auto;word-break: break-word;&#39;&gt;&lt;div align=&quot;center&quot;&gt;&lt;span style=&quot;font-family: Arial; font-size: 12px; text-decoration: none; line-height: 0;&quot;&gt;&lt;span style=&quot;text-decoration: none; line-height: 14px;&quot; class=&quot;&quot;&gt;A_HUB&lt;/span&gt;&lt;/span&gt;&lt;/div&gt;&lt;/div&gt;" style="shape=ellipse;perimeter=ellipsePerimeter;shadow=0;strokeWidth=2;fillColor=#FFFFFF;strokeColor=#333333;opacity=100.0;html=1;nl2Br=0;verticalAlign=middle;align=center;spacingLeft=8.0;spacingRight=6;whiteSpace=wrap;gliffyId=247;" parent="2" vertex="1">
          <mxGeometry x="746.97" y="1337" width="100" height="50" as="geometry" />
        </mxCell>
        <mxCell id="59" value="&lt;div style=&#39;width: 93.0px;height:auto;word-break: break-word;&#39;&gt;&lt;div align=&quot;center&quot;&gt;&lt;span style=&quot;font-family: Arial; font-size: 12px; text-decoration: none; line-height: 0;&quot;&gt;&lt;span style=&quot;text-decoration: none; line-height: 14px;&quot; class=&quot;&quot;&gt;A_HUB&lt;/span&gt;&lt;/span&gt;&lt;/div&gt;&lt;/div&gt;" style="shape=ellipse;perimeter=ellipsePerimeter;shadow=0;strokeWidth=2;fillColor=#FFFFFF;strokeColor=#333333;opacity=100.0;html=1;nl2Br=0;verticalAlign=middle;align=center;spacingLeft=8.0;spacingRight=6;whiteSpace=wrap;gliffyId=203;" parent="2" vertex="1">
          <mxGeometry x="717" y="555.5" width="100" height="50" as="geometry" />
        </mxCell>
        <mxCell id="60" value="&lt;div style=&#39;width: 93.0px;height:auto;word-break: break-word;&#39;&gt;&lt;div align=&quot;center&quot;&gt;&lt;span style=&quot;font-family: Arial; font-size: 12px; text-decoration: none; line-height: 0;&quot;&gt;&lt;span style=&quot;text-decoration: none; line-height: 14px;&quot; class=&quot;&quot;&gt;A_HUB&lt;/span&gt;&lt;/span&gt;&lt;/div&gt;&lt;/div&gt;" style="shape=ellipse;perimeter=ellipsePerimeter;shadow=0;strokeWidth=2;fillColor=#FFFFFF;strokeColor=#333333;opacity=100.0;html=1;nl2Br=0;verticalAlign=middle;align=center;spacingLeft=8.0;spacingRight=6;whiteSpace=wrap;gliffyId=225;" parent="2" vertex="1">
          <mxGeometry x="175" y="561.5" width="100" height="50" as="geometry" />
        </mxCell>
        <mxCell id="61" value="&lt;div style=&#39;width: 93.0px;height:auto;word-break: break-word;&#39;&gt;&lt;div align=&quot;center&quot;&gt;&lt;span style=&quot;font-family: Arial; font-size: 12px; line-height: 0;&quot;&gt;&lt;span style=&quot;line-height: 14px;&quot; class=&quot;&quot;&gt;B_HUB&lt;/span&gt;&lt;/span&gt;&lt;/div&gt;&lt;/div&gt;" style="shape=ellipse;perimeter=ellipsePerimeter;shadow=0;strokeWidth=2;fillColor=#FFFFFF;strokeColor=#333333;opacity=100.0;html=1;nl2Br=0;verticalAlign=middle;align=center;spacingLeft=8.0;spacingRight=6;whiteSpace=wrap;gliffyId=62;" parent="2" vertex="1">
          <mxGeometry x="960" y="816" width="100" height="50" as="geometry" />
        </mxCell>
        <mxCell id="62" value="&lt;div style=&#39;width: 93.0px;height:auto;word-break: break-word;&#39;&gt;&lt;div align=&quot;center&quot;&gt;&lt;span style=&quot;font-family: Arial; font-size: 12px; line-height: 0;&quot;&gt;&lt;span style=&quot;line-height: 14px;&quot; class=&quot;&quot;&gt;B_HUB&lt;/span&gt;&lt;/span&gt;&lt;/div&gt;&lt;/div&gt;" style="shape=ellipse;perimeter=ellipsePerimeter;shadow=0;strokeWidth=2;fillColor=#FFFFFF;strokeColor=#333333;opacity=100.0;html=1;nl2Br=0;verticalAlign=middle;align=center;spacingLeft=8.0;spacingRight=6;whiteSpace=wrap;gliffyId=322;" parent="2" vertex="1">
          <mxGeometry x="960" y="1086" width="100" height="50" as="geometry" />
        </mxCell>
        <mxCell id="63" value="&lt;div style=&#39;width: 93.0px;height:auto;word-break: break-word;&#39;&gt;&lt;div align=&quot;center&quot;&gt;&lt;span style=&quot;font-family: Arial; font-size: 12px; line-height: 0;&quot;&gt;&lt;span style=&quot;line-height: 14px;&quot; class=&quot;&quot;&gt;B_HUB&lt;/span&gt;&lt;/span&gt;&lt;/div&gt;&lt;/div&gt;" style="shape=ellipse;perimeter=ellipsePerimeter;shadow=0;strokeWidth=2;fillColor=#FFFFFF;strokeColor=#333333;opacity=100.0;html=1;nl2Br=0;verticalAlign=middle;align=center;spacingLeft=8.0;spacingRight=6;whiteSpace=wrap;gliffyId=103;" parent="2" vertex="1">
          <mxGeometry x="387" y="1086" width="100" height="50" as="geometry" />
        </mxCell>
        <mxCell id="64" value="&lt;div style=&#39;width: 93.0px;height:auto;word-break: break-word;&#39;&gt;&lt;div align=&quot;center&quot;&gt;&lt;span style=&quot;font-family: Arial; font-size: 12px; line-height: 0;&quot;&gt;&lt;span style=&quot;line-height: 14px;&quot; class=&quot;&quot;&gt;B_HUB&lt;/span&gt;&lt;/span&gt;&lt;/div&gt;&lt;/div&gt;" style="shape=ellipse;perimeter=ellipsePerimeter;shadow=0;strokeWidth=2;fillColor=#FFFFFF;strokeColor=#333333;opacity=100.0;html=1;nl2Br=0;verticalAlign=middle;align=center;spacingLeft=8.0;spacingRight=6;whiteSpace=wrap;gliffyId=148;" parent="2" vertex="1">
          <mxGeometry x="385" y="816" width="100" height="50" as="geometry" />
        </mxCell>
        <mxCell id="65" value="&lt;div style=&#39;width: 93.0px;height:auto;word-break: break-word;&#39;&gt;&lt;div align=&quot;center&quot;&gt;&lt;span style=&quot;font-family: Arial; font-size: 12px; line-height: 0;&quot;&gt;&lt;span style=&quot;line-height: 14px;&quot; class=&quot;&quot;&gt;B_HUB&lt;/span&gt;&lt;/span&gt;&lt;/div&gt;&lt;/div&gt;" style="shape=ellipse;perimeter=ellipsePerimeter;shadow=0;strokeWidth=2;fillColor=#FFFFFF;strokeColor=#333333;opacity=100.0;html=1;nl2Br=0;verticalAlign=middle;align=center;spacingLeft=8.0;spacingRight=6;whiteSpace=wrap;gliffyId=201;" parent="2" vertex="1">
          <mxGeometry x="957" y="556.5" width="100" height="50" as="geometry" />
        </mxCell>
        <mxCell id="66" value="&lt;div style=&#39;width: 93.0px;height:auto;word-break: break-word;&#39;&gt;&lt;div align=&quot;center&quot;&gt;&lt;span style=&quot;font-family: Arial; font-size: 12px; line-height: 0;&quot;&gt;&lt;span style=&quot;line-height: 14px;&quot; class=&quot;&quot;&gt;B_HUB&lt;/span&gt;&lt;/span&gt;&lt;/div&gt;&lt;/div&gt;" style="shape=ellipse;perimeter=ellipsePerimeter;shadow=0;strokeWidth=2;fillColor=#FFFFFF;strokeColor=#333333;opacity=100.0;html=1;nl2Br=0;verticalAlign=middle;align=center;spacingLeft=8.0;spacingRight=6;whiteSpace=wrap;gliffyId=223;" parent="2" vertex="1">
          <mxGeometry x="415" y="561.5" width="100" height="50" as="geometry" />
        </mxCell>
        <mxCell id="67" value="&lt;div style=&#39;width: 25.8px;height:auto;word-break: break-word;&#39;&gt;&lt;div align=&quot;center&quot;&gt;&lt;span style=&quot;font-family: Arial; font-size: 12px; text-decoration: none; line-height: 0;&quot;&gt;&lt;span style=&quot;text-decoration: none; line-height: 14px;&quot;&gt;RL1&lt;/span&gt;&lt;/span&gt;&lt;/div&gt;&lt;/div&gt;" style="shape=mxgraph.basic.pentagon;shadow=0;strokeWidth=2;fillColor=#FFFFFF;strokeColor=#cc0000;opacity=100.0;html=1;nl2Br=0;verticalAlign=middle;align=center;spacingLeft=0.6;spacingRight=0;whiteSpace=wrap;gliffyId=28;" parent="2" vertex="1">
          <mxGeometry x="160" y="353.75" width="30" height="40" as="geometry" />
        </mxCell>
        <mxCell id="68" value="&lt;div style=&#39;width: 25.8px;height:auto;word-break: break-word;&#39;&gt;&lt;div align=&quot;center&quot;&gt;&lt;span style=&quot;font-family: Arial; font-size: 12px; text-decoration: none; line-height: 0;&quot;&gt;&lt;span style=&quot;text-decoration: none; line-height: 14px;&quot;&gt;RL1&lt;/span&gt;&lt;/span&gt;&lt;/div&gt;&lt;/div&gt;" style="shape=mxgraph.basic.pentagon;shadow=0;strokeWidth=2;fillColor=#FFFFFF;strokeColor=#cc0000;opacity=100.0;html=1;nl2Br=0;verticalAlign=middle;align=center;spacingLeft=0.6;spacingRight=0;whiteSpace=wrap;gliffyId=292;" parent="2" vertex="1">
          <mxGeometry x="842" y="356.25" width="30" height="40" as="geometry" />
        </mxCell>
        <mxCell id="69" value="&lt;div style=&#39;width: 25.8px;height:auto;word-break: break-word;&#39;&gt;&lt;div align=&quot;center&quot;&gt;&lt;span style=&quot;font-family: Arial; font-size: 12px; text-decoration: none; line-height: 0;&quot;&gt;&lt;span style=&quot;text-decoration: none; line-height: 14px;&quot;&gt;RL1&lt;/span&gt;&lt;/span&gt;&lt;/div&gt;&lt;/div&gt;" style="shape=mxgraph.basic.pentagon;shadow=0;strokeWidth=2;fillColor=#FFFFFF;strokeColor=#cc0000;opacity=100.0;html=1;nl2Br=0;verticalAlign=middle;align=center;spacingLeft=0.6;spacingRight=0;whiteSpace=wrap;gliffyId=67;" parent="2" vertex="1">
          <mxGeometry x="690" y="815" width="30" height="40" as="geometry" />
        </mxCell>
        <mxCell id="70" value="&lt;div style=&#39;width: 25.8px;height:auto;word-break: break-word;&#39;&gt;&lt;div align=&quot;center&quot;&gt;&lt;span style=&quot;font-family: Arial; font-size: 12px; text-decoration: none; line-height: 0;&quot;&gt;&lt;span style=&quot;text-decoration: none; line-height: 14px;&quot;&gt;RL1&lt;/span&gt;&lt;/span&gt;&lt;/div&gt;&lt;/div&gt;" style="shape=mxgraph.basic.pentagon;shadow=0;strokeWidth=2;fillColor=#FFFFFF;strokeColor=#cc0000;opacity=100.0;html=1;nl2Br=0;verticalAlign=middle;align=center;spacingLeft=0.6;spacingRight=0;whiteSpace=wrap;gliffyId=320;" parent="2" vertex="1">
          <mxGeometry x="690" y="1085" width="30" height="40" as="geometry" />
        </mxCell>
        <mxCell id="71" value="&lt;div style=&#39;width: 25.8px;height:auto;word-break: break-word;&#39;&gt;&lt;div align=&quot;center&quot;&gt;&lt;span style=&quot;font-family: Arial; font-size: 12px; text-decoration: none; line-height: 0;&quot;&gt;&lt;span style=&quot;text-decoration: none; line-height: 14px;&quot;&gt;RL3&lt;/span&gt;&lt;/span&gt;&lt;/div&gt;&lt;/div&gt;" style="shape=mxgraph.basic.pentagon;shadow=0;strokeWidth=2;fillColor=#FFFFFF;strokeColor=#00c74c;opacity=100.0;html=1;nl2Br=0;verticalAlign=middle;align=center;spacingLeft=0.6;spacingRight=0;whiteSpace=wrap;gliffyId=336;" parent="2" vertex="1">
          <mxGeometry x="1090" y="1087" width="30" height="40" as="geometry" />
        </mxCell>
        <mxCell id="72" value="&lt;div style=&#39;width: 25.8px;height:auto;word-break: break-word;&#39;&gt;&lt;div align=&quot;center&quot;&gt;&lt;span style=&quot;font-family: Arial; font-size: 12px; text-decoration: none; line-height: 0;&quot;&gt;&lt;span style=&quot;text-decoration: none; line-height: 14px;&quot;&gt;RL1&lt;/span&gt;&lt;/span&gt;&lt;/div&gt;&lt;/div&gt;" style="shape=mxgraph.basic.pentagon;shadow=0;strokeWidth=2;fillColor=#FFFFFF;strokeColor=#cc0000;opacity=100.0;html=1;nl2Br=0;verticalAlign=middle;align=center;spacingLeft=0.6;spacingRight=0;whiteSpace=wrap;gliffyId=101;" parent="2" vertex="1">
          <mxGeometry x="117" y="1085" width="30" height="40" as="geometry" />
        </mxCell>
        <mxCell id="74" value="&lt;div style=&#39;width: 25.8px;height:auto;word-break: break-word;&#39;&gt;&lt;div align=&quot;center&quot;&gt;&lt;span style=&quot;font-family: Arial; font-size: 12px; text-decoration: none; line-height: 0;&quot;&gt;&lt;span style=&quot;text-decoration: none; line-height: 14px;&quot;&gt;RL2&lt;/span&gt;&lt;/span&gt;&lt;/div&gt;&lt;/div&gt;" style="shape=mxgraph.basic.pentagon;shadow=0;strokeWidth=2;fillColor=#FFFFFF;strokeColor=#7F00FF;opacity=100.0;html=1;nl2Br=0;verticalAlign=middle;align=center;spacingLeft=0.6;spacingRight=0;whiteSpace=wrap;gliffyId=127;" parent="2" vertex="1">
          <mxGeometry x="87" y="1086" width="30" height="40" as="geometry" />
        </mxCell>
        <mxCell id="76" value="&lt;div style=&#39;width: 25.8px;height:auto;word-break: break-word;&#39;&gt;&lt;div align=&quot;center&quot;&gt;&lt;span style=&quot;font-family: Arial; font-size: 12px; text-decoration: none; line-height: 0;&quot;&gt;&lt;span style=&quot;text-decoration: none; line-height: 14px;&quot;&gt;RL1&lt;/span&gt;&lt;/span&gt;&lt;/div&gt;&lt;/div&gt;" style="shape=mxgraph.basic.pentagon;shadow=0;strokeWidth=2;fillColor=#FFFFFF;strokeColor=#cc0000;opacity=100.0;html=1;nl2Br=0;verticalAlign=middle;align=center;spacingLeft=0.6;spacingRight=0;whiteSpace=wrap;gliffyId=146;" parent="2" vertex="1">
          <mxGeometry x="115" y="815" width="30" height="40" as="geometry" />
        </mxCell>
        <mxCell id="77" value="&lt;div style=&#39;width: 25.8px;height:auto;word-break: break-word;&#39;&gt;&lt;div align=&quot;center&quot;&gt;&lt;span style=&quot;font-family: Arial; font-size: 12px; text-decoration: none; line-height: 0;&quot;&gt;&lt;span style=&quot;text-decoration: none; line-height: 14px;&quot;&gt;RL1&lt;/span&gt;&lt;/span&gt;&lt;/div&gt;&lt;/div&gt;" style="shape=mxgraph.basic.pentagon;shadow=0;strokeWidth=2;fillColor=#FFFFFF;strokeColor=#cc0000;opacity=100.0;html=1;nl2Br=0;verticalAlign=middle;align=center;spacingLeft=0.6;spacingRight=0;whiteSpace=wrap;gliffyId=160;" parent="2" vertex="1">
          <mxGeometry x="355" y="750" width="30" height="40" as="geometry" />
        </mxCell>
        <mxCell id="82" value="&lt;div style=&#39;width: 25.8px;height:auto;word-break: break-word;&#39;&gt;&lt;div align=&quot;center&quot;&gt;&lt;span style=&quot;font-family: Arial; font-size: 12px; text-decoration: none; line-height: 0;&quot;&gt;&lt;span style=&quot;text-decoration: none; line-height: 14px;&quot;&gt;RL2&lt;/span&gt;&lt;/span&gt;&lt;/div&gt;&lt;/div&gt;" style="shape=mxgraph.basic.pentagon;shadow=0;strokeWidth=2;fillColor=#FFFFFF;strokeColor=#7F00FF;opacity=100.0;html=1;nl2Br=0;verticalAlign=middle;align=center;spacingLeft=0.6;spacingRight=0;whiteSpace=wrap;gliffyId=260;" parent="2" vertex="1">
          <mxGeometry x="650" y="1342" width="30" height="40" as="geometry" />
        </mxCell>
        <mxCell id="83" value="&lt;div style=&#39;width: 25.8px;height:auto;word-break: break-word;&#39;&gt;&lt;div align=&quot;center&quot;&gt;&lt;span style=&quot;font-family: Arial; font-size: 12px; text-decoration: none; line-height: 0;&quot;&gt;&lt;span style=&quot;text-decoration: none; line-height: 14px;&quot;&gt;RL1&lt;/span&gt;&lt;/span&gt;&lt;/div&gt;&lt;/div&gt;" style="shape=mxgraph.basic.pentagon;shadow=0;strokeWidth=2;fillColor=#FFFFFF;strokeColor=#cc0000;opacity=100.0;html=1;nl2Br=0;verticalAlign=middle;align=center;spacingLeft=0.6;spacingRight=0;whiteSpace=wrap;gliffyId=199;" parent="2" vertex="1">
          <mxGeometry x="687" y="555.5" width="30" height="40" as="geometry" />
        </mxCell>
        <mxCell id="84" value="&lt;div style=&quot;width: 25.8px;height:auto;word-break: break-word;&quot;&gt;&lt;div align=&quot;center&quot;&gt;&lt;span style=&quot;font-family: Arial; font-size: 12px; text-decoration: none; line-height: 0;&quot;&gt;&lt;span style=&quot;text-decoration: none; line-height: 14px;&quot;&gt;RL1&lt;/span&gt;&lt;/span&gt;&lt;/div&gt;&lt;/div&gt;" style="shape=mxgraph.basic.pentagon;shadow=0;strokeWidth=2;fillColor=#FFFFFF;strokeColor=#cc0000;opacity=100.0;html=1;nl2Br=0;verticalAlign=middle;align=center;spacingLeft=0.6;spacingRight=0;whiteSpace=wrap;gliffyId=221;" parent="2" vertex="1">
          <mxGeometry x="145" y="566.5" width="30" height="40" as="geometry" />
        </mxCell>
        <mxCell id="85" value="&lt;div style=&#39;width: 25.8px;height:auto;word-break: break-word;&#39;&gt;&lt;div align=&quot;center&quot;&gt;&lt;span style=&quot;font-family: Arial; font-size: 12px; text-decoration: none; line-height: 0;&quot;&gt;&lt;span style=&quot;text-decoration: none; line-height: 14px;&quot;&gt;RL1&lt;/span&gt;&lt;/span&gt;&lt;/div&gt;&lt;/div&gt;" style="shape=mxgraph.basic.pentagon;shadow=0;strokeWidth=2;fillColor=#FFFFFF;strokeColor=#cc0000;opacity=100.0;html=1;nl2Br=0;verticalAlign=middle;align=center;spacingLeft=0.6;spacingRight=0;whiteSpace=wrap;gliffyId=30;" parent="2" vertex="1">
          <mxGeometry x="160" y="288.75" width="30" height="40" as="geometry" />
        </mxCell>
        <mxCell id="86" value="&lt;div style=&#39;width: 25.8px;height:auto;word-break: break-word;&#39;&gt;&lt;div align=&quot;center&quot;&gt;&lt;span style=&quot;font-family: Arial; font-size: 12px; text-decoration: none; line-height: 0;&quot;&gt;&lt;span style=&quot;text-decoration: none; line-height: 14px;&quot;&gt;RL2&lt;/span&gt;&lt;/span&gt;&lt;/div&gt;&lt;/div&gt;" style="shape=mxgraph.basic.pentagon;shadow=0;strokeWidth=2;fillColor=#FFFFFF;strokeColor=#7F00FF;opacity=100.0;html=1;nl2Br=0;verticalAlign=middle;align=center;spacingLeft=0.6;spacingRight=0;whiteSpace=wrap;gliffyId=32;" parent="2" vertex="1">
          <mxGeometry x="130" y="288.75" width="30" height="40" as="geometry" />
        </mxCell>
        <mxCell id="87" value="&lt;div style=&#39;width: 25.8px;height:auto;word-break: break-word;&#39;&gt;&lt;div align=&quot;center&quot;&gt;&lt;span style=&quot;font-family: Arial; font-size: 12px; text-decoration: none; line-height: 0;&quot;&gt;&lt;span style=&quot;text-decoration: none; line-height: 14px;&quot;&gt;RL2&lt;/span&gt;&lt;/span&gt;&lt;/div&gt;&lt;/div&gt;" style="shape=mxgraph.basic.pentagon;shadow=0;strokeWidth=2;fillColor=#FFFFFF;strokeColor=#7F00FF;opacity=100.0;html=1;nl2Br=0;verticalAlign=middle;align=center;spacingLeft=0.6;spacingRight=0;whiteSpace=wrap;gliffyId=34;" parent="2" vertex="1">
          <mxGeometry x="130" y="353.75" width="30" height="40" as="geometry" />
        </mxCell>
        <mxCell id="88" value="&lt;div style=&#39;width: 25.8px;height:auto;word-break: break-word;&#39;&gt;&lt;div align=&quot;center&quot;&gt;&lt;span style=&quot;font-family: Arial; font-size: 12px; text-decoration: none; line-height: 0;&quot;&gt;&lt;span style=&quot;text-decoration: none; line-height: 14px;&quot;&gt;RL2&lt;/span&gt;&lt;/span&gt;&lt;/div&gt;&lt;/div&gt;" style="shape=mxgraph.basic.pentagon;shadow=0;strokeWidth=2;fillColor=#FFFFFF;strokeColor=#7F00FF;opacity=100.0;html=1;nl2Br=0;verticalAlign=middle;align=center;spacingLeft=0.6;spacingRight=0;whiteSpace=wrap;gliffyId=286;" parent="2" vertex="1">
          <mxGeometry x="812" y="356.25" width="30" height="40" as="geometry" />
        </mxCell>
        <mxCell id="89" value="&lt;div style=&#39;width: 25.8px;height:auto;word-break: break-word;&#39;&gt;&lt;div align=&quot;center&quot;&gt;&lt;span style=&quot;font-family: Arial; font-size: 12px; text-decoration: none; line-height: 0;&quot;&gt;&lt;span style=&quot;text-decoration: none; line-height: 14px;&quot;&gt;RL3&lt;/span&gt;&lt;/span&gt;&lt;/div&gt;&lt;/div&gt;" style="shape=mxgraph.basic.pentagon;shadow=0;strokeWidth=2;fillColor=#FFFFFF;strokeColor=#00c74c;opacity=100.0;html=1;nl2Br=0;verticalAlign=middle;align=center;spacingLeft=0.6;spacingRight=0;whiteSpace=wrap;gliffyId=234;" parent="2" vertex="1">
          <mxGeometry x="100" y="353.75" width="30" height="40" as="geometry" />
        </mxCell>
        <mxCell id="90" value="&lt;div style=&#39;width: 25.8px;height:auto;word-break: break-word;&#39;&gt;&lt;div align=&quot;center&quot;&gt;&lt;span style=&quot;font-family: Arial; font-size: 12px; text-decoration: none; line-height: 0;&quot;&gt;&lt;span style=&quot;text-decoration: none; line-height: 14px;&quot;&gt;RL2&lt;/span&gt;&lt;/span&gt;&lt;/div&gt;&lt;/div&gt;" style="shape=mxgraph.basic.pentagon;shadow=0;strokeWidth=2;fillColor=#FFFFFF;strokeColor=#7F00FF;opacity=100.0;html=1;nl2Br=0;verticalAlign=middle;align=center;spacingLeft=0.6;spacingRight=0;whiteSpace=wrap;gliffyId=69;" parent="2" vertex="1">
          <mxGeometry x="660" y="815" width="30" height="40" as="geometry" />
        </mxCell>
        <mxCell id="91" value="&lt;div style=&#39;width: 25.8px;height:auto;word-break: break-word;&#39;&gt;&lt;div align=&quot;center&quot;&gt;&lt;span style=&quot;font-family: Arial; font-size: 12px; text-decoration: none; line-height: 0;&quot;&gt;&lt;span style=&quot;text-decoration: none; line-height: 14px;&quot;&gt;RL2&lt;/span&gt;&lt;/span&gt;&lt;/div&gt;&lt;/div&gt;" style="shape=mxgraph.basic.pentagon;shadow=0;strokeWidth=2;fillColor=#FFFFFF;strokeColor=#7F00FF;opacity=100.0;html=1;nl2Br=0;verticalAlign=middle;align=center;spacingLeft=0.6;spacingRight=0;whiteSpace=wrap;gliffyId=318;" parent="2" vertex="1">
          <mxGeometry x="660" y="1085" width="30" height="40" as="geometry" />
        </mxCell>
        <mxCell id="92" value="&lt;div style=&#39;width: 25.8px;height:auto;word-break: break-word;&#39;&gt;&lt;div align=&quot;center&quot;&gt;&lt;span style=&quot;font-family: Arial; font-size: 12px; text-decoration: none; line-height: 0;&quot;&gt;&lt;span style=&quot;text-decoration: none; line-height: 14px;&quot;&gt;RL2&lt;/span&gt;&lt;/span&gt;&lt;/div&gt;&lt;/div&gt;" style="shape=mxgraph.basic.pentagon;shadow=0;strokeWidth=2;fillColor=#FFFFFF;strokeColor=#7F00FF;opacity=100.0;html=1;nl2Br=0;verticalAlign=middle;align=center;spacingLeft=0.6;spacingRight=0;whiteSpace=wrap;gliffyId=334;" parent="2" vertex="1">
          <mxGeometry x="1060" y="1087" width="30" height="40" as="geometry" />
        </mxCell>
        <mxCell id="93" value="&lt;div style=&#39;width: 25.8px;height:auto;word-break: break-word;&#39;&gt;&lt;div align=&quot;center&quot;&gt;&lt;span style=&quot;font-family: Arial; font-size: 12px; text-decoration: none; line-height: 0;&quot;&gt;&lt;span style=&quot;text-decoration: none; line-height: 14px;&quot;&gt;RL2&lt;/span&gt;&lt;/span&gt;&lt;/div&gt;&lt;/div&gt;" style="shape=mxgraph.basic.pentagon;shadow=0;strokeWidth=2;fillColor=#FFFFFF;strokeColor=#7F00FF;opacity=100.0;html=1;nl2Br=0;verticalAlign=middle;align=center;spacingLeft=0.6;spacingRight=0;whiteSpace=wrap;gliffyId=144;" parent="2" vertex="1">
          <mxGeometry x="85" y="815" width="30" height="40" as="geometry" />
        </mxCell>
        <mxCell id="96" value="&lt;div style=&#39;width: 25.8px;height:auto;word-break: break-word;&#39;&gt;&lt;div align=&quot;center&quot;&gt;&lt;span style=&quot;font-family: Arial; font-size: 12px; text-decoration: none; line-height: 0;&quot;&gt;&lt;span style=&quot;text-decoration: none; line-height: 14px;&quot;&gt;RL2&lt;/span&gt;&lt;/span&gt;&lt;/div&gt;&lt;/div&gt;" style="shape=mxgraph.basic.pentagon;shadow=0;strokeWidth=2;fillColor=#FFFFFF;strokeColor=#7F00FF;opacity=100.0;html=1;nl2Br=0;verticalAlign=middle;align=center;spacingLeft=0.6;spacingRight=0;whiteSpace=wrap;gliffyId=197;" parent="2" vertex="1">
          <mxGeometry x="657" y="555.5" width="30" height="40" as="geometry" />
        </mxCell>
        <mxCell id="97" value="&lt;div style=&#39;width: 25.8px;height:auto;word-break: break-word;&#39;&gt;&lt;div align=&quot;center&quot;&gt;&lt;span style=&quot;font-family: Arial; font-size: 12px; text-decoration: none; line-height: 0;&quot;&gt;&lt;span style=&quot;text-decoration: none; line-height: 14px;&quot;&gt;RL2&lt;/span&gt;&lt;/span&gt;&lt;/div&gt;&lt;/div&gt;" style="shape=mxgraph.basic.pentagon;shadow=0;strokeWidth=2;fillColor=#FFFFFF;strokeColor=#7F00FF;opacity=100.0;html=1;nl2Br=0;verticalAlign=middle;align=center;spacingLeft=0.6;spacingRight=0;whiteSpace=wrap;gliffyId=219;" parent="2" vertex="1">
          <mxGeometry x="115" y="566.5" width="30" height="40" as="geometry" />
        </mxCell>
        <mxCell id="98" value="&lt;div style=&#39;width: 83.0px;height:auto;word-break: break-word;&#39;&gt;&lt;div align=&quot;center&quot;&gt;&lt;span style=&quot;font-family: Arial; font-size: 12px; text-decoration: none; line-height: 0;&quot;&gt;&lt;span style=&quot;text-decoration: none; line-height: 14px;&quot; class=&quot;&quot;&gt;A_B_LNK&lt;/span&gt;&lt;/span&gt;&lt;/div&gt;&lt;/div&gt;" style="shape=hexagon;perimeter=hexagonPerimeter2;shadow=0;strokeWidth=2;fillColor=#FFFFFF;strokeColor=#333333;opacity=100.0;html=1;nl2Br=0;verticalAlign=middle;align=center;spacingLeft=2.0;spacingRight=0;whiteSpace=wrap;gliffyId=57;" parent="2" vertex="1">
          <mxGeometry x="840" y="817" width="90" height="48" as="geometry" />
        </mxCell>
        <mxCell id="99" value="&lt;div style=&#39;width: 83.0px;height:auto;word-break: break-word;&#39;&gt;&lt;div align=&quot;center&quot;&gt;&lt;span style=&quot;font-family: Arial; font-size: 12px; text-decoration: none; line-height: 0;&quot;&gt;&lt;span style=&quot;text-decoration: none; line-height: 14px;&quot; class=&quot;&quot;&gt;A_B_LNK&lt;/span&gt;&lt;/span&gt;&lt;/div&gt;&lt;/div&gt;" style="shape=hexagon;perimeter=hexagonPerimeter2;shadow=0;strokeWidth=2;fillColor=#FFFFFF;strokeColor=#333333;opacity=100.0;html=1;nl2Br=0;verticalAlign=middle;align=center;spacingLeft=2.0;spacingRight=0;whiteSpace=wrap;gliffyId=316;" parent="2" vertex="1">
          <mxGeometry x="840" y="1087" width="90" height="48" as="geometry" />
        </mxCell>
        <mxCell id="100" value="&lt;div style=&#39;width: 83.0px;height:auto;word-break: break-word;&#39;&gt;&lt;div align=&quot;center&quot;&gt;&lt;span style=&quot;font-family: Arial; font-size: 12px; text-decoration: none; line-height: 0;&quot;&gt;&lt;span style=&quot;text-decoration: none; line-height: 14px;&quot; class=&quot;&quot;&gt;A_B_LNK&lt;/span&gt;&lt;/span&gt;&lt;/div&gt;&lt;/div&gt;" style="shape=hexagon;perimeter=hexagonPerimeter2;shadow=0;strokeWidth=2;fillColor=#FFFFFF;strokeColor=#333333;opacity=100.0;html=1;nl2Br=0;verticalAlign=middle;align=center;spacingLeft=2.0;spacingRight=0;whiteSpace=wrap;gliffyId=97;" parent="2" vertex="1">
          <mxGeometry x="267" y="1087" width="90" height="48" as="geometry" />
        </mxCell>
        <mxCell id="101" value="&lt;div style=&#39;width: 83.0px;height:auto;word-break: break-word;&#39;&gt;&lt;div align=&quot;center&quot;&gt;&lt;span style=&quot;font-family: Arial; font-size: 12px; text-decoration: none; line-height: 0;&quot;&gt;&lt;span style=&quot;text-decoration: none; line-height: 14px;&quot; class=&quot;&quot;&gt;A_B_LNK&lt;/span&gt;&lt;/span&gt;&lt;/div&gt;&lt;/div&gt;" style="shape=hexagon;perimeter=hexagonPerimeter2;shadow=0;strokeWidth=2;fillColor=#FFFFFF;strokeColor=#333333;opacity=100.0;html=1;nl2Br=0;verticalAlign=middle;align=center;spacingLeft=2.0;spacingRight=0;whiteSpace=wrap;gliffyId=142;" parent="2" vertex="1">
          <mxGeometry x="265" y="817" width="90" height="48" as="geometry" />
        </mxCell>
        <mxCell id="102" value="&lt;div style=&quot;width: 83.0px;height:auto;word-break: break-word;&quot;&gt;&lt;div align=&quot;center&quot;&gt;&lt;span style=&quot;font-family: Arial; font-size: 12px; text-decoration: none; line-height: 0;&quot;&gt;&lt;span style=&quot;text-decoration: none; line-height: 14px;&quot;&gt;A_AR_LNK&lt;/span&gt;&lt;/span&gt;&lt;/div&gt;&lt;/div&gt;" style="shape=hexagon;perimeter=hexagonPerimeter2;shadow=0;strokeWidth=2;fillColor=#FFFFFF;strokeColor=#333333;opacity=100.0;html=1;nl2Br=0;verticalAlign=middle;align=center;spacingLeft=2.0;spacingRight=0;whiteSpace=wrap;gliffyId=168;" parent="2" vertex="1">
          <mxGeometry x="277" y="1346" width="90" height="48" as="geometry" />
        </mxCell>
        <mxCell id="103" value="&lt;div style=&quot;width: 83.0px;height:auto;word-break: break-word;&quot;&gt;&lt;div align=&quot;center&quot;&gt;&lt;span style=&quot;font-family: Arial; font-size: 12px; text-decoration: none; line-height: 0;&quot;&gt;&lt;span style=&quot;text-decoration: none; line-height: 14px;&quot;&gt;A_AR_LNK&lt;/span&gt;&lt;/span&gt;&lt;/div&gt;&lt;/div&gt;" style="shape=hexagon;perimeter=hexagonPerimeter2;shadow=0;strokeWidth=2;fillColor=#FFFFFF;strokeColor=#000000;opacity=100.0;html=1;nl2Br=0;verticalAlign=middle;align=center;spacingLeft=2.0;spacingRight=0;whiteSpace=wrap;gliffyId=241;" parent="2" vertex="1">
          <mxGeometry x="866.97" y="1339" width="90" height="48" as="geometry" />
        </mxCell>
        <mxCell id="104" value="&lt;div style=&#39;width: 83.0px;height:auto;word-break: break-word;&#39;&gt;&lt;div align=&quot;center&quot;&gt;&lt;span style=&quot;font-family: Arial; font-size: 12px; text-decoration: none; line-height: 0;&quot;&gt;&lt;span style=&quot;text-decoration: none; line-height: 14px;&quot; class=&quot;&quot;&gt;A_B_LNK&lt;/span&gt;&lt;/span&gt;&lt;/div&gt;&lt;/div&gt;" style="shape=hexagon;perimeter=hexagonPerimeter2;shadow=0;strokeWidth=2;fillColor=#FFFFFF;strokeColor=#333333;opacity=100.0;html=1;nl2Br=0;verticalAlign=middle;align=center;spacingLeft=2.0;spacingRight=0;whiteSpace=wrap;gliffyId=195;" parent="2" vertex="1">
          <mxGeometry x="837" y="556.5" width="90" height="48" as="geometry" />
        </mxCell>
        <mxCell id="105" value="&lt;div style=&#39;width: 83.0px;height:auto;word-break: break-word;&#39;&gt;&lt;div align=&quot;center&quot;&gt;&lt;span style=&quot;font-family: Arial; font-size: 12px; text-decoration: none; line-height: 0;&quot;&gt;&lt;span style=&quot;text-decoration: none; line-height: 14px;&quot; class=&quot;&quot;&gt;A_B_LNK&lt;/span&gt;&lt;/span&gt;&lt;/div&gt;&lt;/div&gt;" style="shape=hexagon;perimeter=hexagonPerimeter2;shadow=0;strokeWidth=2;fillColor=#FFFFFF;strokeColor=#333333;opacity=100.0;html=1;nl2Br=0;verticalAlign=middle;align=center;spacingLeft=2.0;spacingRight=0;whiteSpace=wrap;gliffyId=217;" parent="2" vertex="1">
          <mxGeometry x="295" y="562.5" width="90" height="48" as="geometry" />
        </mxCell>
        <mxCell id="106" value="The hub must have at least the same relation_names as the satellite to cover the different business keys needed to store the data." style="shape=note;size=10;shadow=0;strokeWidth=1;fillColor=#FFFFFF;strokeColor=#000000;opacity=100.0;nl2Br=0;verticalAlign=middle;align=center;spacingLeft=2.0;spacingRight=0;whiteSpace=wrap;gliffyId=41;" parent="2" vertex="1">
          <mxGeometry x="100" y="406.25" width="210" height="60" as="geometry" />
        </mxCell>
        <mxCell id="107" value="The SAT must be processed for both RL. (Same content but different Hub Key)" style="shape=note;size=10;shadow=0;strokeWidth=1;fillColor=#FFFFFF;strokeColor=#000000;opacity=100.0;nl2Br=0;verticalAlign=middle;align=center;spacingLeft=2.0;spacingRight=0;whiteSpace=wrap;gliffyId=282;" parent="2" vertex="1">
          <mxGeometry x="790" y="410" width="240" height="56.25" as="geometry" />
        </mxCell>
        <mxCell id="109" value="LNK and SAT will be processed only for RL2 triggered by apearence of RL2 on all sides of the link" style="shape=note;size=10;shadow=0;strokeWidth=1;fillColor=#FFFFFF;strokeColor=#000000;opacity=100.0;nl2Br=0;verticalAlign=middle;align=center;spacingLeft=2.0;spacingRight=0;whiteSpace=wrap;gliffyId=314;" parent="2" vertex="1">
          <mxGeometry x="810" y="1150" width="150" height="70" as="geometry" />
        </mxCell>
        <mxCell id="111" value="&lt;div style=&quot;width: 351.57144px;height:auto;word-break: break-word;&quot;&gt;&lt;div align=&quot;center&quot;&gt;&lt;span style=&quot;font-family: Arial; font-size: 12px; line-height: 0;&quot;&gt;&lt;span style=&quot;line-height: 14px;&quot; class=&quot;&quot;&gt;Tables with a relation mapping will induce explicitly named processes. All other tables will have a&lt;/span&gt;&lt;/span&gt;&lt;/div&gt;&lt;div align=&quot;center&quot;&gt;&lt;span style=&quot;font-family: Arial; font-size: 12px; line-height: 0;&quot;&gt;&lt;span style=&quot;line-height: 14px;&quot; class=&quot;&quot;&gt;process name &quot;/&quot;&lt;/span&gt;&lt;/span&gt;&lt;/div&gt;&lt;/div&gt;" style="shape=note;size=10;shadow=0;strokeWidth=1;fillColor=#FFFFFF;strokeColor=#000000;opacity=100.0;html=1;nl2Br=0;verticalAlign=middle;align=center;spacingLeft=5.214286;spacingRight=0;whiteSpace=wrap;gliffyId=87;" parent="2" vertex="1">
          <mxGeometry x="100" y="29" width="365" height="70" as="geometry" />
        </mxCell>
        <mxCell id="114" value="A_B_LNK is processed for both RL triggered by satellite declaration" style="shape=note;size=10;shadow=0;strokeWidth=1;fillColor=#FFFFFF;strokeColor=#000000;opacity=100.0;nl2Br=0;verticalAlign=middle;align=center;spacingLeft=2.0;spacingRight=0;whiteSpace=wrap;gliffyId=95;" parent="2" vertex="1">
          <mxGeometry x="230" y="1170" width="162.5" height="50" as="geometry" />
        </mxCell>
        <mxCell id="116" value="A_HUB must be mapped to RL1 so corresponding businesskey for the relation is identified" style="shape=note;size=10;shadow=0;strokeWidth=1;fillColor=#FFFFFF;strokeColor=#000000;opacity=100.0;nl2Br=0;verticalAlign=middle;align=center;spacingLeft=2.0;spacingRight=0;whiteSpace=wrap;gliffyId=340;" parent="2" vertex="1">
          <mxGeometry x="80" y="880" width="190" height="70" as="geometry" />
        </mxCell>
        <mxCell id="118" value="A_B_LNK will only be processed for RL1 due to declaration on SAT" style="shape=note;size=10;shadow=0;strokeWidth=1;fillColor=#FFFFFF;strokeColor=#000000;opacity=100.0;nl2Br=0;verticalAlign=middle;align=center;spacingLeft=2.0;spacingRight=0;whiteSpace=wrap;gliffyId=140;" parent="2" vertex="1">
          <mxGeometry x="280" y="880" width="110" height="70" as="geometry" />
        </mxCell>
        <mxCell id="119" value="A_AR_LNK and ESAT are processed by &quot;/&quot; (it is just one relation)" style="shape=note;size=10;shadow=0;strokeWidth=1;fillColor=#FFFFFF;strokeColor=#000000;opacity=100.0;nl2Br=0;verticalAlign=middle;align=center;spacingLeft=2.0;spacingRight=0;whiteSpace=wrap;gliffyId=166;" parent="2" vertex="1">
          <mxGeometry x="290" y="1460" width="210" height="47" as="geometry" />
        </mxCell>
        <mxCell id="121" value="A_HUB will be processed for the origin business key and the business key of the recursion" style="shape=note;size=10;shadow=0;strokeWidth=1;fillColor=#FFFFFF;strokeColor=#000000;opacity=100.0;nl2Br=0;verticalAlign=middle;align=center;spacingLeft=2.0;spacingRight=0;whiteSpace=wrap;gliffyId=268;" parent="2" vertex="1">
          <mxGeometry x="80" y="1437" width="180" height="70" as="geometry" />
        </mxCell>
        <mxCell id="122" value="&lt;div style=&quot;width: 133.0px;height:auto;word-break: break-word;&quot;&gt;&lt;div align=&quot;center&quot;&gt;&lt;font face=&quot;Arial&quot;&gt;A_HUB will be processed for origin keys (&quot;/&quot;) , RL2 and the key of the recursion HC&lt;/font&gt;&lt;/div&gt;&lt;/div&gt;" style="shape=note;size=10;shadow=0;strokeWidth=1;fillColor=#FFFFFF;strokeColor=#000000;opacity=100.0;html=1;nl2Br=0;verticalAlign=middle;align=center;spacingLeft=2.0;spacingRight=0;whiteSpace=wrap;gliffyId=270;" parent="2" vertex="1">
          <mxGeometry x="661.97" y="1449" width="140" height="70" as="geometry" />
        </mxCell>
        <mxCell id="124" value="A_HUB and A_B_LNK will be processed for RL1 and RL2" style="shape=note;size=10;shadow=0;strokeWidth=1;fillColor=#FFFFFF;strokeColor=#000000;opacity=100.0;nl2Br=0;verticalAlign=middle;align=center;spacingLeft=2.0;spacingRight=0;whiteSpace=wrap;gliffyId=193;" parent="2" vertex="1">
          <mxGeometry x="670" y="620.63" width="240" height="46.25" as="geometry" />
        </mxCell>
        <mxCell id="125" value="Link and B_HUB will only be loaded for RL1" style="shape=note;size=10;shadow=0;strokeWidth=1;fillColor=#FFFFFF;strokeColor=#000000;opacity=100.0;nl2Br=0;verticalAlign=middle;align=center;spacingLeft=2.0;spacingRight=0;whiteSpace=wrap;gliffyId=213;" parent="2" vertex="1">
          <mxGeometry x="252.5" y="620" width="257.5" height="42.5" as="geometry" />
        </mxCell>
        <mxCell id="D5uimbUbbbk_esGOEbq7-128" value="&lt;div style=&quot;width: 43.0px;height:auto;word-break: break-word;&quot;&gt;&lt;div align=&quot;center&quot;&gt;&lt;span style=&quot;font-family: Helvetica; font-size: 36px; text-decoration: none; line-height: 36px; font-weight: bold;&quot;&gt;1a&lt;/span&gt;&lt;/div&gt;&lt;/div&gt;" style="shape=rect;shadow=0;strokeWidth=0;strokeColor=none;fillColor=#cccccc;opacity=100.0;html=1;nl2Br=0;verticalAlign=top;align=center;spacingLeft=2.0;spacingRight=0;spacingTop=1.0;spacingBottom=8;whiteSpace=wrap;gliffyId=345;" parent="2" vertex="1">
          <mxGeometry x="400" y="220" width="50" height="250" as="geometry" />
        </mxCell>
        <mxCell id="D5uimbUbbbk_esGOEbq7-129" value="This can only be solved by creating two rows during the staging. &#xa;Only one load per table is needed." style="shape=note;size=10;shadow=0;strokeWidth=1;fillColor=#FFFFFF;strokeColor=#000000;opacity=100.0;nl2Br=0;verticalAlign=middle;align=center;spacingLeft=2.0;spacingRight=0;whiteSpace=wrap;gliffyId=41;" parent="2" vertex="1">
          <mxGeometry x="455" y="420" width="210" height="46.25" as="geometry" />
        </mxCell>
        <mxCell id="D5uimbUbbbk_esGOEbq7-130" value="&lt;div style=&#39;width: 93.0px;height:auto;word-break: break-word;&#39;&gt;&lt;div align=&quot;center&quot;&gt;&lt;span style=&quot;font-family: Arial; font-size: 12px; text-decoration: none; line-height: 0;&quot;&gt;&lt;span style=&quot;text-decoration: none; line-height: 14px;&quot;&gt;A_HUB&lt;/span&gt;&lt;/span&gt;&lt;/div&gt;&lt;/div&gt;" style="shape=ellipse;perimeter=ellipsePerimeter;shadow=0;strokeWidth=2;fillColor=#FFFFFF;strokeColor=#333333;opacity=100.0;html=1;nl2Br=0;verticalAlign=middle;align=center;spacingLeft=2.0;spacingRight=0;whiteSpace=wrap;gliffyId=12;" parent="2" vertex="1">
          <mxGeometry x="535" y="361.88" width="100" height="50" as="geometry" />
        </mxCell>
        <mxCell id="D5uimbUbbbk_esGOEbq7-131" value="&lt;div style=&quot;width: 93.0px;height:auto;word-break: break-word;&quot;&gt;&lt;div align=&quot;center&quot;&gt;&lt;span style=&quot;font-family: Arial; font-size: 12px; text-decoration: none; line-height: 0;&quot;&gt;&lt;span style=&quot;text-decoration: none; line-height: 14px;&quot; class=&quot;&quot;&gt;A_MSAT&lt;/span&gt;&lt;/span&gt;&lt;/div&gt;&lt;/div&gt;" style="shape=rect;rounded=1;arcSize=15;absoluteArcSize=1;shadow=0;strokeWidth=2;fillColor=#FFFFFF;strokeColor=#333333;opacity=100.0;html=1;nl2Br=0;verticalAlign=middle;align=center;spacingLeft=2.0;spacingRight=0;whiteSpace=wrap;gliffyId=15;" parent="2" vertex="1">
          <mxGeometry x="535" y="300.63" width="100" height="40" as="geometry" />
        </mxCell>
        <mxCell id="D5uimbUbbbk_esGOEbq7-132" value="&lt;div style=&#39;width: 25.8px;height:auto;word-break: break-word;&#39;&gt;&lt;div align=&quot;center&quot;&gt;&lt;span style=&quot;font-family: Arial; font-size: 12px; text-decoration: none; line-height: 0;&quot;&gt;&lt;span style=&quot;text-decoration: none; line-height: 14px;&quot;&gt;RL1&lt;/span&gt;&lt;/span&gt;&lt;/div&gt;&lt;/div&gt;" style="shape=mxgraph.basic.pentagon;shadow=0;strokeWidth=2;fillColor=#FFFFFF;strokeColor=#cc0000;opacity=100.0;html=1;nl2Br=0;verticalAlign=middle;align=center;spacingLeft=0.6;spacingRight=0;whiteSpace=wrap;gliffyId=30;" parent="2" vertex="1">
          <mxGeometry x="502.5" y="300.63" width="30" height="40" as="geometry" />
        </mxCell>
        <mxCell id="D5uimbUbbbk_esGOEbq7-133" value="&lt;div style=&#39;width: 25.8px;height:auto;word-break: break-word;&#39;&gt;&lt;div align=&quot;center&quot;&gt;&lt;span style=&quot;font-family: Arial; font-size: 12px; text-decoration: none; line-height: 0;&quot;&gt;&lt;span style=&quot;text-decoration: none; line-height: 14px;&quot;&gt;RL2&lt;/span&gt;&lt;/span&gt;&lt;/div&gt;&lt;/div&gt;" style="shape=mxgraph.basic.pentagon;shadow=0;strokeWidth=2;fillColor=#FFFFFF;strokeColor=#7F00FF;opacity=100.0;html=1;nl2Br=0;verticalAlign=middle;align=center;spacingLeft=0.6;spacingRight=0;whiteSpace=wrap;gliffyId=32;" parent="2" vertex="1">
          <mxGeometry x="472.5" y="300.63" width="30" height="40" as="geometry" />
        </mxCell>
        <mxCell id="D5uimbUbbbk_esGOEbq7-134" style="shape=filledEdge;strokeWidth=2;strokeColor=#000000;fillColor=none;startArrow=none;startFill=0;startSize=6;endArrow=none;endFill=0;endSize=6;rounded=1;gliffyId=17;edgeStyle=orthogonalEdgeStyle;" parent="2" source="D5uimbUbbbk_esGOEbq7-131" target="D5uimbUbbbk_esGOEbq7-130" edge="1">
          <mxGeometry width="1" height="23" relative="1" as="geometry">
            <mxPoint x="585" y="336.88" as="sourcePoint" />
            <mxPoint x="338" y="371.88" as="targetPoint" />
          </mxGeometry>
        </mxCell>
        <mxCell id="D5uimbUbbbk_esGOEbq7-136" value="Multiple objects of the same hub in one row&#xa;(this model is not conserving the unit of work)" style="shape=note;size=10;shadow=0;strokeWidth=0;fillColor=#cccccc;strokeColor=none;opacity=100.0;nl2Br=0;verticalAlign=top;align=center;spacingLeft=2.0;spacingRight=0;whiteSpace=wrap;gliffyId=41;spacingTop=1;spacingBottom=8;" parent="2" vertex="1">
          <mxGeometry x="67.5" y="220" width="312.5" height="40" as="geometry" />
        </mxCell>
        <mxCell id="D5uimbUbbbk_esGOEbq7-138" value="Multiple mappings from single row to satellite while using the same business key results in a multiactive satellite." style="shape=note;size=10;shadow=0;strokeWidth=0;fillColor=#cccccc;strokeColor=none;opacity=100.0;nl2Br=0;verticalAlign=top;align=center;spacingLeft=2.0;spacingRight=0;whiteSpace=wrap;gliffyId=41;spacingTop=1;spacingBottom=8;" parent="2" vertex="1">
          <mxGeometry x="450" y="220" width="260" height="70" as="geometry" />
        </mxCell>
        <mxCell id="D5uimbUbbbk_esGOEbq7-139" value="Multiple business keys in one row, identifying the same data " style="shape=note;size=10;shadow=0;strokeWidth=0;fillColor=#cccccc;strokeColor=none;opacity=100.0;nl2Br=0;verticalAlign=top;align=center;spacingLeft=2.0;spacingRight=0;whiteSpace=wrap;gliffyId=282;spacingTop=1;spacingBottom=8;" parent="2" vertex="1">
          <mxGeometry x="770" y="220" width="350" height="41.25" as="geometry" />
        </mxCell>
        <mxCell id="D5uimbUbbbk_esGOEbq7-141" value="Multiple business keys for A_HUB but only a selected relation should be used for the relation to B_HUB. There is only one businesskey for the B_HUB" style="shape=note;size=10;shadow=0;strokeWidth=0;fillColor=#cccccc;strokeColor=none;opacity=100.0;nl2Br=0;verticalAlign=top;align=center;spacingLeft=2.0;spacingRight=0;whiteSpace=wrap;gliffyId=282;spacingTop=1;spacingBottom=8;" parent="2" vertex="1">
          <mxGeometry x="70" y="500" width="490" height="41.25" as="geometry" />
        </mxCell>
        <mxCell id="D5uimbUbbbk_esGOEbq7-142" value="&lt;div style=&quot;width: 25.8px;height:auto;word-break: break-word;&quot;&gt;&lt;div align=&quot;center&quot;&gt;&lt;br&gt;&lt;/div&gt;&lt;/div&gt;" style="shape=mxgraph.basic.pentagon;shadow=0;strokeWidth=2;fillColor=#FFFFFF;strokeColor=#000000;opacity=100.0;html=1;nl2Br=0;verticalAlign=middle;align=center;spacingLeft=0.6;spacingRight=0;whiteSpace=wrap;gliffyId=286;" parent="2" vertex="1">
          <mxGeometry x="525" y="33" width="15" height="25" as="geometry" />
        </mxCell>
        <mxCell id="D5uimbUbbbk_esGOEbq7-143" value="A_HUB must be processed for RL1&amp;RL2" style="shape=note;size=10;shadow=0;strokeWidth=1;fillColor=#FFFFFF;strokeColor=#000000;opacity=100.0;nl2Br=0;verticalAlign=middle;align=center;spacingLeft=2.0;spacingRight=0;whiteSpace=wrap;gliffyId=213;" parent="2" vertex="1">
          <mxGeometry x="112.5" y="620" width="140" height="42.5" as="geometry" />
        </mxCell>
        <mxCell id="D5uimbUbbbk_esGOEbq7-144" value="Multiple business keys for A_HUB and all variations should be used for the relation to B_HUB. There is only one businesskey for the B_HUB" style="shape=note;size=10;shadow=0;strokeWidth=0;fillColor=#cccccc;strokeColor=none;opacity=100.0;nl2Br=0;verticalAlign=top;align=center;spacingLeft=2.0;spacingRight=0;whiteSpace=wrap;gliffyId=282;spacingTop=1;spacingBottom=8;" parent="2" vertex="1">
          <mxGeometry x="635" y="500" width="485" height="41.25" as="geometry" />
        </mxCell>
        <mxCell id="D5uimbUbbbk_esGOEbq7-145" value="Loading of B_HUB is not affected and done in &quot;/&quot;" style="shape=note;size=10;shadow=0;strokeWidth=1;fillColor=#FFFFFF;strokeColor=#000000;opacity=100.0;nl2Br=0;verticalAlign=middle;align=center;spacingLeft=2.0;spacingRight=0;whiteSpace=wrap;gliffyId=215;" parent="2" vertex="1">
          <mxGeometry x="927" y="629.38" width="140" height="37.5" as="geometry" />
        </mxCell>
        <mxCell id="D5uimbUbbbk_esGOEbq7-147" value="Multiple business keys for A_HUB but only a selected relation should be used for the relation to B_HUB. There is only one businesskey for the B_HUB. The relation is tracked by a satellite." style="shape=note;size=10;shadow=0;strokeWidth=0;fillColor=#cccccc;strokeColor=none;opacity=100.0;nl2Br=0;verticalAlign=top;align=center;spacingLeft=2.0;spacingRight=0;whiteSpace=wrap;gliffyId=282;spacingTop=1;spacingBottom=8;" parent="2" vertex="1">
          <mxGeometry x="70" y="690" width="490" height="60" as="geometry" />
        </mxCell>
        <mxCell id="D5uimbUbbbk_esGOEbq7-148" value="Loading of B_HUB is not affected and done in &quot;/&quot;" style="shape=note;size=10;shadow=0;strokeWidth=1;fillColor=#FFFFFF;strokeColor=#000000;opacity=100.0;nl2Br=0;verticalAlign=middle;align=center;spacingLeft=2.0;spacingRight=0;whiteSpace=wrap;gliffyId=215;" parent="2" vertex="1">
          <mxGeometry x="400" y="880" width="140" height="37.5" as="geometry" />
        </mxCell>
        <mxCell id="D5uimbUbbbk_esGOEbq7-149" value="Multiple business keys for A_HUB and all variations should be used for the relation to B_HUB. There is only one businesskey for the B_HUB.The relation is tracked by a satellite." style="shape=note;size=10;shadow=0;strokeWidth=0;fillColor=#cccccc;strokeColor=none;opacity=100.0;nl2Br=0;verticalAlign=top;align=center;spacingLeft=2.0;spacingRight=0;whiteSpace=wrap;gliffyId=282;spacingTop=1;spacingBottom=8;" parent="2" vertex="1">
          <mxGeometry x="635" y="690" width="485" height="60" as="geometry" />
        </mxCell>
        <mxCell id="D5uimbUbbbk_esGOEbq7-150" value="A_HUB,  A_B_LNK and satellite will be processed for RL1 and RL2, triggerd by declaration on A_HUB" style="shape=note;size=10;shadow=0;strokeWidth=1;fillColor=#FFFFFF;strokeColor=#000000;opacity=100.0;nl2Br=0;verticalAlign=middle;align=center;spacingLeft=2.0;spacingRight=0;whiteSpace=wrap;gliffyId=193;" parent="2" vertex="1">
          <mxGeometry x="672" y="880" width="240" height="50" as="geometry" />
        </mxCell>
        <mxCell id="D5uimbUbbbk_esGOEbq7-151" value="Loading of B_HUB is not affected and done in &quot;/&quot;" style="shape=note;size=10;shadow=0;strokeWidth=1;fillColor=#FFFFFF;strokeColor=#000000;opacity=100.0;nl2Br=0;verticalAlign=middle;align=center;spacingLeft=2.0;spacingRight=0;whiteSpace=wrap;gliffyId=215;" parent="2" vertex="1">
          <mxGeometry x="930" y="880" width="140" height="50" as="geometry" />
        </mxCell>
        <mxCell id="D5uimbUbbbk_esGOEbq7-152" value="Loading of B_HUB is not affected and done in &quot;/&quot;" style="shape=note;size=10;shadow=0;strokeWidth=1;fillColor=#FFFFFF;strokeColor=#000000;opacity=100.0;nl2Br=0;verticalAlign=middle;align=center;spacingLeft=2.0;spacingRight=0;whiteSpace=wrap;gliffyId=215;" parent="2" vertex="1">
          <mxGeometry x="405" y="1169" width="140" height="37.5" as="geometry" />
        </mxCell>
        <mxCell id="D5uimbUbbbk_esGOEbq7-155" value="A_HUB must have declaration for  RL1 and RL2 to identify the  corresponding businesskey for the relation " style="shape=note;size=10;shadow=0;strokeWidth=1;fillColor=#FFFFFF;strokeColor=#000000;opacity=100.0;nl2Br=0;verticalAlign=middle;align=center;spacingLeft=2.0;spacingRight=0;whiteSpace=wrap;gliffyId=340;" parent="2" vertex="1">
          <mxGeometry x="72.5" y="1150" width="157.5" height="70" as="geometry" />
        </mxCell>
        <mxCell id="D5uimbUbbbk_esGOEbq7-156" value="Multiple business keys for A_HUB. Every combination should be tracked by another satellite. There is only one businesskey for the B_HUB." style="shape=note;size=10;shadow=0;strokeWidth=0;fillColor=#cccccc;strokeColor=none;opacity=100.0;nl2Br=0;verticalAlign=top;align=center;spacingLeft=2.0;spacingRight=0;whiteSpace=wrap;gliffyId=282;spacingTop=1;spacingBottom=8;" parent="2" vertex="1">
          <mxGeometry x="70" y="960" width="490" height="50" as="geometry" />
        </mxCell>
        <mxCell id="D5uimbUbbbk_esGOEbq7-157" value="Multiple business keys for A_HUB and B_HUB. Only one combination represents the relation from A to B and should be tracked by another satellite." style="shape=note;size=10;shadow=0;strokeWidth=0;fillColor=#cccccc;strokeColor=none;opacity=100.0;nl2Br=0;verticalAlign=top;align=center;spacingLeft=2.0;spacingRight=0;whiteSpace=wrap;gliffyId=282;spacingTop=1;spacingBottom=8;" parent="2" vertex="1">
          <mxGeometry x="635" y="960" width="485" height="50" as="geometry" />
        </mxCell>
        <mxCell id="D5uimbUbbbk_esGOEbq7-158" value="B_HUB is processed for RL2 and RL3" style="shape=note;size=10;shadow=0;strokeWidth=1;fillColor=#FFFFFF;strokeColor=#000000;opacity=100.0;nl2Br=0;verticalAlign=middle;align=center;spacingLeft=2.0;spacingRight=0;whiteSpace=wrap;gliffyId=215;" parent="2" vertex="1">
          <mxGeometry x="965" y="1170" width="140" height="50" as="geometry" />
        </mxCell>
        <mxCell id="D5uimbUbbbk_esGOEbq7-159" value="A_HUB is processed for RL1 and RL2" style="shape=note;size=10;shadow=0;strokeWidth=1;fillColor=#FFFFFF;strokeColor=#000000;opacity=100.0;nl2Br=0;verticalAlign=middle;align=center;spacingLeft=2.0;spacingRight=0;whiteSpace=wrap;gliffyId=215;" parent="2" vertex="1">
          <mxGeometry x="667" y="1169" width="140" height="50" as="geometry" />
        </mxCell>
        <mxCell id="D5uimbUbbbk_esGOEbq7-160" value="Recursive relation from/to A_HUB" style="shape=note;size=10;shadow=0;strokeWidth=0;fillColor=#cccccc;strokeColor=none;opacity=100.0;nl2Br=0;verticalAlign=top;align=center;spacingLeft=2.0;spacingRight=0;whiteSpace=wrap;gliffyId=282;spacingTop=1;spacingBottom=8;" parent="2" vertex="1">
          <mxGeometry x="70" y="1257" width="490" height="50" as="geometry" />
        </mxCell>
        <mxCell id="D5uimbUbbbk_esGOEbq7-161" value="Recursive relation from/to A_HUB, with additonal business key for A_HUB, where the recursion is not applicable" style="shape=note;size=10;shadow=0;strokeWidth=0;fillColor=#cccccc;strokeColor=none;opacity=100.0;nl2Br=0;verticalAlign=top;align=center;spacingLeft=2.0;spacingRight=0;whiteSpace=wrap;gliffyId=282;spacingTop=1;spacingBottom=8;" parent="2" vertex="1">
          <mxGeometry x="635" y="1257" width="485" height="50" as="geometry" />
        </mxCell>
        <mxCell id="AQTmQn9YJskU7MhowZhO-128" value="RL1" style="shape=step;perimeter=stepPerimeter;whiteSpace=wrap;html=1;fixedSize=1;size=5;fillColor=#FFFFFF;strokeColor=#cc0000;shadow=0;strokeWidth=2;opacity=100;spacingLeft=0.6;spacingRight=0;" parent="2" vertex="1">
          <mxGeometry x="197" y="1023.88" width="40" height="32.25" as="geometry" />
        </mxCell>
        <mxCell id="AQTmQn9YJskU7MhowZhO-129" value="RL2" style="shape=step;perimeter=stepPerimeter;whiteSpace=wrap;html=1;fixedSize=1;size=5;fillColor=#FFFFFF;strokeColor=#7F00FF;shadow=0;strokeWidth=2;opacity=100;spacingLeft=0.6;spacingRight=0;flipH=1;" parent="2" vertex="1">
          <mxGeometry x="429" y="1023.8700000000001" width="40" height="32.25" as="geometry" />
        </mxCell>
        <mxCell id="AQTmQn9YJskU7MhowZhO-138" value="" style="shape=step;perimeter=stepPerimeter;whiteSpace=wrap;html=1;fixedSize=1;size=5;fillColor=#FFFFFF;strokeColor=#000000;shadow=0;strokeWidth=2;opacity=100;spacingLeft=0.6;spacingRight=0;" parent="2" vertex="1">
          <mxGeometry x="525" y="69" width="20" height="21" as="geometry" />
        </mxCell>
        <mxCell id="AQTmQn9YJskU7MhowZhO-139" value="" style="ellipse;whiteSpace=wrap;html=1;strokeColor=none;fillColor=#00c74c;" parent="2" vertex="1">
          <mxGeometry x="252.5" y="387" width="10" height="11" as="geometry" />
        </mxCell>
        <mxCell id="AQTmQn9YJskU7MhowZhO-140" value="" style="ellipse;whiteSpace=wrap;html=1;strokeColor=none;fillColor=#00c74c;" parent="2" vertex="1">
          <mxGeometry x="1022" y="1119" width="10" height="11" as="geometry" />
        </mxCell>
        <mxCell id="AQTmQn9YJskU7MhowZhO-141" value="" style="ellipse;whiteSpace=wrap;html=1;strokeColor=none;fillColor=#cc0000;" parent="2" vertex="1">
          <mxGeometry x="220" y="387" width="10" height="11" as="geometry" />
        </mxCell>
        <mxCell id="AQTmQn9YJskU7MhowZhO-143" value="" style="ellipse;whiteSpace=wrap;html=1;strokeColor=none;fillColor=#cc0000;" parent="2" vertex="1">
          <mxGeometry x="220" y="315.13" width="10" height="11" as="geometry" />
        </mxCell>
        <mxCell id="AQTmQn9YJskU7MhowZhO-144" value="" style="ellipse;whiteSpace=wrap;html=1;strokeColor=none;fillColor=#cc0000;" parent="2" vertex="1">
          <mxGeometry x="577.5" y="326.13" width="10" height="11" as="geometry" />
        </mxCell>
        <mxCell id="AQTmQn9YJskU7MhowZhO-145" value="" style="ellipse;whiteSpace=wrap;html=1;strokeColor=none;fillColor=#cc0000;" parent="2" vertex="1">
          <mxGeometry x="905" y="320" width="10" height="11" as="geometry" />
        </mxCell>
        <mxCell id="AQTmQn9YJskU7MhowZhO-146" value="" style="ellipse;whiteSpace=wrap;html=1;strokeColor=none;fillColor=#cc0000;" parent="2" vertex="1">
          <mxGeometry x="752.5" y="588.5" width="10" height="11" as="geometry" />
        </mxCell>
        <mxCell id="AQTmQn9YJskU7MhowZhO-147" value="" style="ellipse;whiteSpace=wrap;html=1;strokeColor=none;fillColor=#cc0000;" parent="2" vertex="1">
          <mxGeometry x="866.97" y="588.5" width="10" height="11" as="geometry" />
        </mxCell>
        <mxCell id="AQTmQn9YJskU7MhowZhO-148" value="" style="ellipse;whiteSpace=wrap;html=1;strokeColor=none;fillColor=#cc0000;" parent="2" vertex="1">
          <mxGeometry x="335" y="593.5" width="10" height="11" as="geometry" />
        </mxCell>
        <mxCell id="AQTmQn9YJskU7MhowZhO-149" value="" style="ellipse;whiteSpace=wrap;html=1;strokeColor=none;fillColor=#cc0000;" parent="2" vertex="1">
          <mxGeometry x="210" y="595.5" width="10" height="11" as="geometry" />
        </mxCell>
        <mxCell id="AQTmQn9YJskU7MhowZhO-150" value="" style="ellipse;whiteSpace=wrap;html=1;strokeColor=none;fillColor=#cc0000;" parent="2" vertex="1">
          <mxGeometry x="180" y="850" width="10" height="11" as="geometry" />
        </mxCell>
        <mxCell id="AQTmQn9YJskU7MhowZhO-151" value="" style="ellipse;whiteSpace=wrap;html=1;strokeColor=none;fillColor=#cc0000;" parent="2" vertex="1">
          <mxGeometry x="300" y="779" width="10" height="11" as="geometry" />
        </mxCell>
        <mxCell id="AQTmQn9YJskU7MhowZhO-152" value="" style="ellipse;whiteSpace=wrap;html=1;strokeColor=none;fillColor=#cc0000;" parent="2" vertex="1">
          <mxGeometry x="307" y="850" width="10" height="11" as="geometry" />
        </mxCell>
        <mxCell id="AQTmQn9YJskU7MhowZhO-153" value="" style="ellipse;whiteSpace=wrap;html=1;strokeColor=none;fillColor=#cc0000;" parent="2" vertex="1">
          <mxGeometry x="755" y="850" width="10" height="11" as="geometry" />
        </mxCell>
        <mxCell id="AQTmQn9YJskU7MhowZhO-154" value="" style="ellipse;whiteSpace=wrap;html=1;strokeColor=none;fillColor=#cc0000;" parent="2" vertex="1">
          <mxGeometry x="875" y="850" width="10" height="11" as="geometry" />
        </mxCell>
        <mxCell id="AQTmQn9YJskU7MhowZhO-155" value="" style="ellipse;whiteSpace=wrap;html=1;strokeColor=none;fillColor=#cc0000;" parent="2" vertex="1">
          <mxGeometry x="870" y="779" width="10" height="11" as="geometry" />
        </mxCell>
        <mxCell id="AQTmQn9YJskU7MhowZhO-156" value="" style="ellipse;whiteSpace=wrap;html=1;strokeColor=none;fillColor=#7f00ff;" parent="2" vertex="1">
          <mxGeometry x="870" y="1049" width="10" height="11" as="geometry" />
        </mxCell>
        <mxCell id="AQTmQn9YJskU7MhowZhO-157" value="" style="ellipse;whiteSpace=wrap;html=1;strokeColor=none;fillColor=#7f00ff;" parent="2" vertex="1">
          <mxGeometry x="880" y="1119" width="10" height="11" as="geometry" />
        </mxCell>
        <mxCell id="AQTmQn9YJskU7MhowZhO-158" value="" style="ellipse;whiteSpace=wrap;html=1;strokeColor=none;fillColor=#cc0000;" parent="2" vertex="1">
          <mxGeometry x="777" y="1119" width="10" height="11" as="geometry" />
        </mxCell>
        <mxCell id="AQTmQn9YJskU7MhowZhO-159" value="" style="ellipse;whiteSpace=wrap;html=1;strokeColor=none;fillColor=#cc0000;" parent="2" vertex="1">
          <mxGeometry x="305" y="1119" width="10" height="11" as="geometry" />
        </mxCell>
        <mxCell id="AQTmQn9YJskU7MhowZhO-160" value="" style="ellipse;whiteSpace=wrap;html=1;strokeColor=none;fillColor=#cc0000;" parent="2" vertex="1">
          <mxGeometry x="265" y="1049" width="10" height="11" as="geometry" />
        </mxCell>
        <mxCell id="AQTmQn9YJskU7MhowZhO-161" value="" style="ellipse;whiteSpace=wrap;html=1;strokeColor=none;fillColor=#cc0000;" parent="2" vertex="1">
          <mxGeometry x="180" y="1119" width="10" height="11" as="geometry" />
        </mxCell>
        <mxCell id="AQTmQn9YJskU7MhowZhO-162" value="" style="ellipse;whiteSpace=wrap;html=1;strokeColor=none;fillColor=#000000;" parent="2" vertex="1">
          <mxGeometry x="910" y="1427.12" width="10" height="11" as="geometry" />
        </mxCell>
        <mxCell id="AQTmQn9YJskU7MhowZhO-163" value="" style="ellipse;whiteSpace=wrap;html=1;strokeColor=none;fillColor=#000000;" parent="2" vertex="1">
          <mxGeometry x="910" y="1371" width="10" height="11" as="geometry" />
        </mxCell>
        <mxCell id="AQTmQn9YJskU7MhowZhO-172" value="" style="ellipse;whiteSpace=wrap;html=1;strokeColor=none;fillColor=#000000;" parent="2" vertex="1">
          <mxGeometry x="322" y="1409" width="10" height="11" as="geometry" />
        </mxCell>
        <mxCell id="AQTmQn9YJskU7MhowZhO-173" value="" style="ellipse;whiteSpace=wrap;html=1;strokeColor=none;fillColor=#000000;" parent="2" vertex="1">
          <mxGeometry x="322" y="1376" width="10" height="11" as="geometry" />
        </mxCell>
        <mxCell id="AQTmQn9YJskU7MhowZhO-174" value="" style="ellipse;whiteSpace=wrap;html=1;strokeColor=none;fillColor=#000000;" parent="2" vertex="1">
          <mxGeometry x="192" y="1376" width="10" height="11" as="geometry" />
        </mxCell>
        <mxCell id="AQTmQn9YJskU7MhowZhO-175" value="" style="ellipse;whiteSpace=wrap;html=1;strokeColor=none;fillColor=#cc0000;" parent="2" vertex="1">
          <mxGeometry x="791.97" y="1371" width="10" height="11" as="geometry" />
        </mxCell>
        <mxCell id="AQTmQn9YJskU7MhowZhO-179" value="" style="ellipse;whiteSpace=wrap;html=1;strokeColor=none;fillColor=#faab00;" parent="2" vertex="1">
          <mxGeometry x="212" y="1376" width="10" height="11" as="geometry" />
        </mxCell>
        <mxCell id="AQTmQn9YJskU7MhowZhO-181" value="&lt;div style=&quot;width: 25.8px;height:auto;word-break: break-word;&quot;&gt;&lt;div align=&quot;center&quot;&gt;&lt;span style=&quot;font-family: Arial; font-size: 12px; text-decoration: none; line-height: 0;&quot;&gt;&lt;span style=&quot;text-decoration: none; line-height: 14px;&quot;&gt;RC&lt;/span&gt;&lt;/span&gt;&lt;/div&gt;&lt;/div&gt;" style="shape=mxgraph.basic.pentagon;shadow=0;strokeWidth=2;fillColor=#FFFFFF;strokeColor=#faab00;opacity=100.0;html=1;nl2Br=0;verticalAlign=middle;align=center;spacingLeft=0.6;spacingRight=0;whiteSpace=wrap;gliffyId=67;" parent="2" vertex="1">
          <mxGeometry x="121.25" y="1347" width="30" height="40" as="geometry" />
        </mxCell>
        <mxCell id="AQTmQn9YJskU7MhowZhO-183" value="" style="ellipse;whiteSpace=wrap;html=1;strokeColor=none;fillColor=#7f00ff;" parent="2" vertex="1">
          <mxGeometry x="752.5" y="1119" width="10" height="11" as="geometry" />
        </mxCell>
        <mxCell id="AQTmQn9YJskU7MhowZhO-184" value="" style="ellipse;whiteSpace=wrap;html=1;strokeColor=none;fillColor=#7f00ff;" parent="2" vertex="1">
          <mxGeometry x="777" y="1371" width="10" height="11" as="geometry" />
        </mxCell>
        <mxCell id="AQTmQn9YJskU7MhowZhO-186" value="" style="ellipse;whiteSpace=wrap;html=1;strokeColor=none;fillColor=#7f00ff;" parent="2" vertex="1">
          <mxGeometry x="995" y="1119" width="10" height="11" as="geometry" />
        </mxCell>
        <mxCell id="AQTmQn9YJskU7MhowZhO-187" value="" style="ellipse;whiteSpace=wrap;html=1;strokeColor=none;fillColor=#7f00ff;" parent="2" vertex="1">
          <mxGeometry x="380" y="1045.12" width="10" height="11" as="geometry" />
        </mxCell>
        <mxCell id="AQTmQn9YJskU7MhowZhO-188" value="" style="ellipse;whiteSpace=wrap;html=1;strokeColor=none;fillColor=#7f00ff;" parent="2" vertex="1">
          <mxGeometry x="320" y="1119" width="10" height="11" as="geometry" />
        </mxCell>
        <mxCell id="AQTmQn9YJskU7MhowZhO-189" value="" style="ellipse;whiteSpace=wrap;html=1;strokeColor=none;fillColor=#7f00ff;" parent="2" vertex="1">
          <mxGeometry x="197" y="1119" width="10" height="11" as="geometry" />
        </mxCell>
        <mxCell id="AQTmQn9YJskU7MhowZhO-192" value="" style="ellipse;whiteSpace=wrap;html=1;strokeColor=none;fillColor=#000000;" parent="2" vertex="1">
          <mxGeometry x="432" y="1119" width="10" height="11" as="geometry" />
        </mxCell>
        <mxCell id="AQTmQn9YJskU7MhowZhO-193" value="" style="ellipse;whiteSpace=wrap;html=1;strokeColor=none;fillColor=#000000;" parent="2" vertex="1">
          <mxGeometry x="430" y="850" width="10" height="11" as="geometry" />
        </mxCell>
        <mxCell id="AQTmQn9YJskU7MhowZhO-194" value="" style="ellipse;whiteSpace=wrap;html=1;strokeColor=none;fillColor=#000000;" parent="2" vertex="1">
          <mxGeometry x="1005" y="850" width="10" height="11" as="geometry" />
        </mxCell>
        <mxCell id="AQTmQn9YJskU7MhowZhO-196" value="" style="ellipse;whiteSpace=wrap;html=1;strokeColor=none;fillColor=#7f00ff;" parent="2" vertex="1">
          <mxGeometry x="890" y="850" width="10" height="11" as="geometry" />
        </mxCell>
        <mxCell id="AQTmQn9YJskU7MhowZhO-197" value="" style="ellipse;whiteSpace=wrap;html=1;strokeColor=none;fillColor=#7f00ff;" parent="2" vertex="1">
          <mxGeometry x="890" y="779" width="10" height="11" as="geometry" />
        </mxCell>
        <mxCell id="AQTmQn9YJskU7MhowZhO-198" value="" style="ellipse;whiteSpace=wrap;html=1;strokeColor=none;fillColor=#7f00ff;" parent="2" vertex="1">
          <mxGeometry x="777" y="850" width="10" height="11" as="geometry" />
        </mxCell>
        <mxCell id="AQTmQn9YJskU7MhowZhO-199" value="" style="ellipse;whiteSpace=wrap;html=1;strokeColor=none;fillColor=#7f00ff;" parent="2" vertex="1">
          <mxGeometry x="202" y="850" width="10" height="11" as="geometry" />
        </mxCell>
        <mxCell id="AQTmQn9YJskU7MhowZhO-200" value="" style="ellipse;whiteSpace=wrap;html=1;strokeColor=none;fillColor=#7f00ff;" parent="2" vertex="1">
          <mxGeometry x="230" y="595.5" width="10" height="11" as="geometry" />
        </mxCell>
        <mxCell id="AQTmQn9YJskU7MhowZhO-201" value="" style="ellipse;whiteSpace=wrap;html=1;strokeColor=none;fillColor=#7f00ff;" parent="2" vertex="1">
          <mxGeometry x="775" y="588.5" width="10" height="11" as="geometry" />
        </mxCell>
        <mxCell id="AQTmQn9YJskU7MhowZhO-203" value="" style="ellipse;whiteSpace=wrap;html=1;strokeColor=none;fillColor=#7f00ff;" parent="2" vertex="1">
          <mxGeometry x="890" y="588.5" width="10" height="11" as="geometry" />
        </mxCell>
        <mxCell id="AQTmQn9YJskU7MhowZhO-204" value="" style="ellipse;whiteSpace=wrap;html=1;strokeColor=none;fillColor=#CC0000;" parent="2" vertex="1">
          <mxGeometry x="460" y="595.5" width="10" height="11" as="geometry" />
        </mxCell>
        <mxCell id="AQTmQn9YJskU7MhowZhO-205" value="" style="ellipse;whiteSpace=wrap;html=1;strokeColor=none;fillColor=#000000;" parent="2" vertex="1">
          <mxGeometry x="1002" y="588.5" width="10" height="11" as="geometry" />
        </mxCell>
        <mxCell id="AQTmQn9YJskU7MhowZhO-207" value="" style="ellipse;whiteSpace=wrap;html=1;strokeColor=none;fillColor=#cc0000;" parent="2" vertex="1">
          <mxGeometry x="905" y="387" width="10" height="11" as="geometry" />
        </mxCell>
        <mxCell id="AQTmQn9YJskU7MhowZhO-208" value="" style="ellipse;whiteSpace=wrap;html=1;strokeColor=none;fillColor=#7f00ff;" parent="2" vertex="1">
          <mxGeometry x="927.5" y="387" width="10" height="11" as="geometry" />
        </mxCell>
        <mxCell id="AQTmQn9YJskU7MhowZhO-209" value="" style="ellipse;whiteSpace=wrap;html=1;strokeColor=none;fillColor=#7f00ff;" parent="2" vertex="1">
          <mxGeometry x="927" y="320" width="10" height="11" as="geometry" />
        </mxCell>
        <mxCell id="AQTmQn9YJskU7MhowZhO-210" value="" style="ellipse;whiteSpace=wrap;html=1;strokeColor=none;fillColor=#7f00ff;" parent="2" vertex="1">
          <mxGeometry x="582.5" y="326.13" width="10" height="11" as="geometry" />
        </mxCell>
        <mxCell id="AQTmQn9YJskU7MhowZhO-211" value="" style="ellipse;whiteSpace=wrap;html=1;strokeColor=none;fillColor=#000000;" parent="2" vertex="1">
          <mxGeometry x="580" y="395.25" width="10" height="11" as="geometry" />
        </mxCell>
        <mxCell id="AQTmQn9YJskU7MhowZhO-212" value="" style="ellipse;whiteSpace=wrap;html=1;strokeColor=none;fillColor=#7f00ff;" parent="2" vertex="1">
          <mxGeometry x="245" y="315.13" width="10" height="11" as="geometry" />
        </mxCell>
        <mxCell id="AQTmQn9YJskU7MhowZhO-213" value="" style="ellipse;whiteSpace=wrap;html=1;strokeColor=none;fillColor=#7f00ff;" parent="2" vertex="1">
          <mxGeometry x="235" y="387" width="10" height="11" as="geometry" />
        </mxCell>
        <mxCell id="AQTmQn9YJskU7MhowZhO-217" value="&lt;div style=&quot;width: 25.8px;height:auto;word-break: break-word;&quot;&gt;&lt;div align=&quot;center&quot;&gt;&lt;span style=&quot;font-family: Arial; font-size: 12px; text-decoration: none; line-height: 0;&quot;&gt;&lt;span style=&quot;text-decoration: none; line-height: 14px;&quot;&gt;HC&lt;/span&gt;&lt;/span&gt;&lt;/div&gt;&lt;/div&gt;" style="shape=mxgraph.basic.pentagon;shadow=0;strokeWidth=2;fillColor=#FFFFFF;strokeColor=#cc0000;opacity=100.0;html=1;nl2Br=0;verticalAlign=middle;align=center;spacingLeft=0.6;spacingRight=0;whiteSpace=wrap;gliffyId=258;" parent="2" vertex="1">
          <mxGeometry x="686.97" y="1343" width="30" height="40" as="geometry" />
        </mxCell>
        <mxCell id="jys8LJUgoWKAC8k-G7pv-126" value="" style="ellipse;whiteSpace=wrap;html=1;strokeColor=none;fillColor=#000000;" parent="2" vertex="1">
          <mxGeometry x="807" y="1371" width="10" height="11" as="geometry" />
        </mxCell>
        <mxCell id="jys8LJUgoWKAC8k-G7pv-127" value="&lt;div style=&quot;width: 25.8px;height:auto;word-break: break-word;&quot;&gt;&lt;div align=&quot;center&quot;&gt;&lt;span style=&quot;font-family: Arial; font-size: 12px; text-decoration: none; line-height: 0;&quot;&gt;&lt;span style=&quot;text-decoration: none; line-height: 14px;&quot;&gt;RL1&lt;/span&gt;&lt;/span&gt;&lt;/div&gt;&lt;/div&gt;" style="shape=mxgraph.basic.pentagon;shadow=0;strokeWidth=2;fillColor=#FFFFFF;strokeColor=#cc0000;opacity=100.0;html=1;nl2Br=0;verticalAlign=middle;align=center;spacingLeft=0.6;spacingRight=0;whiteSpace=wrap;gliffyId=221;" parent="2" vertex="1">
          <mxGeometry x="500" y="565.5" width="30" height="40" as="geometry" />
        </mxCell>
        <mxCell id="lZJGbRG0akUhZNdjgXmK-126" value="A_AR_LNK and ESAT are processed by &quot;/&quot; (it is just one relation)" style="shape=note;size=10;shadow=0;strokeWidth=1;fillColor=#FFFFFF;strokeColor=#000000;opacity=100.0;nl2Br=0;verticalAlign=middle;align=center;spacingLeft=2.0;spacingRight=0;whiteSpace=wrap;gliffyId=166;" parent="2" vertex="1">
          <mxGeometry x="827" y="1470" width="210" height="47" as="geometry" />
        </mxCell>
        <mxCell id="AQTmQn9YJskU7MhowZhO-130" value="HC" style="shape=step;perimeter=stepPerimeter;whiteSpace=wrap;html=1;fixedSize=1;size=5;fillColor=#FFFFFF;strokeColor=#cc0000;shadow=0;strokeWidth=2;opacity=100;spacingLeft=0.6;spacingRight=0;" parent="2" vertex="1">
          <mxGeometry x="950" y="1349.94" width="40" height="24.13" as="geometry" />
        </mxCell>
        <mxCell id="AQTmQn9YJskU7MhowZhO-136" value="RC" style="shape=step;perimeter=stepPerimeter;whiteSpace=wrap;html=1;fixedSize=1;size=5;fillColor=#FFFFFF;strokeColor=#faab00;shadow=0;strokeWidth=2;opacity=100;spacingLeft=0.6;spacingRight=0;" parent="2" vertex="1">
          <mxGeometry x="361.25" y="1358.44" width="40" height="21.12" as="geometry" />
        </mxCell>
      </root>
    </mxGraphModel>
  </diagram>
</mxfile>
